<?xml version="1.0" encoding="UTF-8" standalone="no"?>
<!DOCTYPE svg PUBLIC "-//W3C//DTD SVG 1.1//EN"
 "http://www.w3.org/Graphics/SVG/1.1/DTD/svg11.dtd">
<!-- Generated by graphviz version 12.2.0 (20241103.1931)
 -->
<!-- Title: G Pages: 1 -->
<svg width="2323pt" height="819pt"
 viewBox="0.00 0.00 2322.70 818.97" xmlns="http://www.w3.org/2000/svg" xmlns:xlink="http://www.w3.org/1999/xlink">
<g id="graph0" class="graph" transform="scale(1 1) rotate(0) translate(21.6 797.37)">
<title>G</title>
<polygon fill="#111111" stroke="none" points="-21.6,21.6 -21.6,-797.37 2301.1,-797.37 2301.1,21.6 -21.6,21.6"/>
<!-- ../../types/lib/graph.d.ts -->
<g id="node1" class="node">
<title>../../types/lib/graph.d.ts</title>
<path fill="none" stroke="#c6c5fe" d="M2080.83,-472.75C2080.83,-472.75 1944.92,-472.75 1944.92,-472.75 1940.96,-472.75 1937,-468.79 1937,-464.83 1937,-464.83 1937,-456.92 1937,-456.92 1937,-452.96 1940.96,-449 1944.92,-449 1944.92,-449 2080.83,-449 2080.83,-449 2084.79,-449 2088.75,-452.96 2088.75,-456.92 2088.75,-456.92 2088.75,-464.83 2088.75,-464.83 2088.75,-468.79 2084.79,-472.75 2080.83,-472.75"/>
<text text-anchor="middle" x="2012.88" y="-455.45" font-family="Arial" font-size="14.00" fill="#c6c5fe">../../types/lib/graph.d.ts</text>
</g>
<!-- ../../types/lib/preset.d.ts -->
<g id="node2" class="node">
<title>../../types/lib/preset.d.ts</title>
<path fill="none" stroke="#cfffac" d="M2271.58,-492.75C2271.58,-492.75 2132.67,-492.75 2132.67,-492.75 2128.71,-492.75 2124.75,-488.79 2124.75,-484.83 2124.75,-484.83 2124.75,-476.92 2124.75,-476.92 2124.75,-472.96 2128.71,-469 2132.67,-469 2132.67,-469 2271.58,-469 2271.58,-469 2275.54,-469 2279.5,-472.96 2279.5,-476.92 2279.5,-476.92 2279.5,-484.83 2279.5,-484.83 2279.5,-488.79 2275.54,-492.75 2271.58,-492.75"/>
<text text-anchor="middle" x="2202.12" y="-475.45" font-family="Arial" font-size="14.00" fill="#cfffac">../../types/lib/preset.d.ts</text>
</g>
<!-- ../../types/lib/graph.d.ts&#45;&gt;../../types/lib/preset.d.ts -->
<g id="edge1" class="edge">
<title>../../types/lib/graph.d.ts&#45;&gt;../../types/lib/preset.d.ts</title>
<path fill="none" stroke="#757575" d="M2089.23,-468.92C2097.1,-469.76 2105.16,-470.62 2113.15,-471.48"/>
<polygon fill="#757575" stroke="#757575" points="2112.58,-474.94 2122.9,-472.52 2113.32,-467.98 2112.58,-474.94"/>
</g>
<!-- ../../types/lib/index.d.ts -->
<g id="node3" class="node">
<title>../../types/lib/index.d.ts</title>
<path fill="none" stroke="#c6c5fe" d="M1893.08,-493.75C1893.08,-493.75 1759.42,-493.75 1759.42,-493.75 1755.46,-493.75 1751.5,-489.79 1751.5,-485.83 1751.5,-485.83 1751.5,-477.92 1751.5,-477.92 1751.5,-473.96 1755.46,-470 1759.42,-470 1759.42,-470 1893.08,-470 1893.08,-470 1897.04,-470 1901,-473.96 1901,-477.92 1901,-477.92 1901,-485.83 1901,-485.83 1901,-489.79 1897.04,-493.75 1893.08,-493.75"/>
<text text-anchor="middle" x="1826.25" y="-476.45" font-family="Arial" font-size="14.00" fill="#c6c5fe">../../types/lib/index.d.ts</text>
</g>
<!-- ../../types/lib/index.d.ts&#45;&gt;../../types/lib/graph.d.ts -->
<g id="edge2" class="edge">
<title>../../types/lib/index.d.ts&#45;&gt;../../types/lib/graph.d.ts</title>
<path fill="none" stroke="#757575" d="M1901.28,-473.45C1909.19,-472.55 1917.29,-471.63 1925.32,-470.72"/>
<polygon fill="#757575" stroke="#757575" points="1925.58,-474.21 1935.12,-469.61 1924.79,-467.26 1925.58,-474.21"/>
</g>
<!-- ../../types/lib/index.d.ts&#45;&gt;../../types/lib/preset.d.ts -->
<g id="edge3" class="edge">
<title>../../types/lib/index.d.ts&#45;&gt;../../types/lib/preset.d.ts</title>
<path fill="none" stroke="#757575" d="M1901.36,-482.05C1953.72,-482.13 2025.53,-482.16 2088.75,-481.88 2096.57,-481.84 2104.7,-481.79 2112.85,-481.73"/>
<polygon fill="#757575" stroke="#757575" points="2112.87,-485.23 2122.84,-481.66 2112.82,-478.24 2112.87,-485.23"/>
</g>
<!-- ../types/@npmcli/arborist/index.d.ts -->
<g id="node4" class="node">
<title>../types/@npmcli/arborist/index.d.ts</title>
<path fill="none" stroke="#cfffac" d="M1707.58,-373.75C1707.58,-373.75 1495.92,-373.75 1495.92,-373.75 1491.96,-373.75 1488,-369.79 1488,-365.83 1488,-365.83 1488,-357.92 1488,-357.92 1488,-353.96 1491.96,-350 1495.92,-350 1495.92,-350 1707.58,-350 1707.58,-350 1711.54,-350 1715.5,-353.96 1715.5,-357.92 1715.5,-357.92 1715.5,-365.83 1715.5,-365.83 1715.5,-369.79 1711.54,-373.75 1707.58,-373.75"/>
<text text-anchor="middle" x="1601.75" y="-356.45" font-family="Arial" font-size="14.00" fill="#cfffac">../types/@npmcli/arborist/index.d.ts</text>
</g>
<!-- ../types/@npmcli/config/index.d.ts -->
<g id="node5" class="node">
<title>../types/@npmcli/config/index.d.ts</title>
<path fill="none" stroke="#cfffac" d="M1703.08,-415.75C1703.08,-415.75 1500.42,-415.75 1500.42,-415.75 1496.46,-415.75 1492.5,-411.79 1492.5,-407.83 1492.5,-407.83 1492.5,-399.92 1492.5,-399.92 1492.5,-395.96 1496.46,-392 1500.42,-392 1500.42,-392 1703.08,-392 1703.08,-392 1707.04,-392 1711,-395.96 1711,-399.92 1711,-399.92 1711,-407.83 1711,-407.83 1711,-411.79 1707.04,-415.75 1703.08,-415.75"/>
<text text-anchor="middle" x="1601.75" y="-398.45" font-family="Arial" font-size="14.00" fill="#cfffac">../types/@npmcli/config/index.d.ts</text>
</g>
<!-- ../types/@npmcli/run&#45;script/index.d.ts -->
<g id="node6" class="node">
<title>../types/@npmcli/run&#45;script/index.d.ts</title>
<path fill="none" stroke="#cfffac" d="M661.33,-65.75C661.33,-65.75 438.42,-65.75 438.42,-65.75 434.46,-65.75 430.5,-61.79 430.5,-57.83 430.5,-57.83 430.5,-49.92 430.5,-49.92 430.5,-45.96 434.46,-42 438.42,-42 438.42,-42 661.33,-42 661.33,-42 665.29,-42 669.25,-45.96 669.25,-49.92 669.25,-49.92 669.25,-57.83 669.25,-57.83 669.25,-61.79 665.29,-65.75 661.33,-65.75"/>
<text text-anchor="middle" x="549.88" y="-48.45" font-family="Arial" font-size="14.00" fill="#cfffac">../types/@npmcli/run&#45;script/index.d.ts</text>
</g>
<!-- ../types/mvdan&#45;sh/index.d.ts -->
<g id="node7" class="node">
<title>../types/mvdan&#45;sh/index.d.ts</title>
<path fill="none" stroke="#cfffac" d="M1686.21,-65.75C1686.21,-65.75 1517.29,-65.75 1517.29,-65.75 1513.33,-65.75 1509.38,-61.79 1509.38,-57.83 1509.38,-57.83 1509.38,-49.92 1509.38,-49.92 1509.38,-45.96 1513.33,-42 1517.29,-42 1517.29,-42 1686.21,-42 1686.21,-42 1690.17,-42 1694.12,-45.96 1694.12,-49.92 1694.12,-49.92 1694.12,-57.83 1694.12,-57.83 1694.12,-61.79 1690.17,-65.75 1686.21,-65.75"/>
<text text-anchor="middle" x="1601.75" y="-48.45" font-family="Arial" font-size="14.00" fill="#cfffac">../types/mvdan&#45;sh/index.d.ts</text>
</g>
<!-- debugger.ts -->
<g id="node8" class="node">
<title>debugger.ts</title>
<path fill="none" stroke="#cfffac" d="M1637.08,-171.75C1637.08,-171.75 1566.42,-171.75 1566.42,-171.75 1562.46,-171.75 1558.5,-167.79 1558.5,-163.83 1558.5,-163.83 1558.5,-155.92 1558.5,-155.92 1558.5,-151.96 1562.46,-148 1566.42,-148 1566.42,-148 1637.08,-148 1637.08,-148 1641.04,-148 1645,-151.96 1645,-155.92 1645,-155.92 1645,-163.83 1645,-163.83 1645,-167.79 1641.04,-171.75 1637.08,-171.75"/>
<text text-anchor="middle" x="1601.75" y="-154.45" font-family="Arial" font-size="14.00" fill="#cfffac">debugger.ts</text>
</g>
<!-- directive.ts -->
<g id="node9" class="node">
<title>directive.ts</title>
<path fill="none" stroke="#c6c5fe" d="M789.83,-654.75C789.83,-654.75 725.17,-654.75 725.17,-654.75 721.21,-654.75 717.25,-650.79 717.25,-646.83 717.25,-646.83 717.25,-638.92 717.25,-638.92 717.25,-634.96 721.21,-631 725.17,-631 725.17,-631 789.83,-631 789.83,-631 793.79,-631 797.75,-634.96 797.75,-638.92 797.75,-638.92 797.75,-646.83 797.75,-646.83 797.75,-650.79 793.79,-654.75 789.83,-654.75"/>
<text text-anchor="middle" x="757.5" y="-637.45" font-family="Arial" font-size="14.00" fill="#c6c5fe">directive.ts</text>
</g>
<!-- directive.ts&#45;&gt;../../types/lib/index.d.ts -->
<g id="edge4" class="edge">
<title>directive.ts&#45;&gt;../../types/lib/index.d.ts</title>
<path fill="none" stroke="#757575" d="M798.21,-642.66C856.1,-642.37 967.08,-641.88 1061.5,-641.88 1061.5,-641.88 1061.5,-641.88 1222,-641.88 1331.77,-641.88 1617.76,-670.83 1715.5,-620.88 1722.09,-617.5 1780.93,-540.47 1809.63,-502.57"/>
<polygon fill="#757575" stroke="#757575" points="1812.08,-505.14 1815.32,-495.05 1806.5,-500.91 1812.08,-505.14"/>
</g>
<!-- executable/entry.ts -->
<g id="node10" class="node">
<title>executable/entry.ts</title>
<path fill="none" stroke="#c6c5fe" d="M288.08,-124.75C288.08,-124.75 175.42,-124.75 175.42,-124.75 171.46,-124.75 167.5,-120.79 167.5,-116.83 167.5,-116.83 167.5,-108.92 167.5,-108.92 167.5,-104.96 171.46,-101 175.42,-101 175.42,-101 288.08,-101 288.08,-101 292.04,-101 296,-104.96 296,-108.92 296,-108.92 296,-116.83 296,-116.83 296,-120.79 292.04,-124.75 288.08,-124.75"/>
<text text-anchor="middle" x="231.75" y="-107.45" font-family="Arial" font-size="14.00" fill="#c6c5fe">executable/entry.ts</text>
</g>
<!-- preset/index.ts -->
<g id="node11" class="node">
<title>preset/index.ts</title>
<path fill="none" stroke="#c6c5fe" d="M593.83,-297.75C593.83,-297.75 505.92,-297.75 505.92,-297.75 501.96,-297.75 498,-293.79 498,-289.83 498,-289.83 498,-281.92 498,-281.92 498,-277.96 501.96,-274 505.92,-274 505.92,-274 593.83,-274 593.83,-274 597.79,-274 601.75,-277.96 601.75,-281.92 601.75,-281.92 601.75,-289.83 601.75,-289.83 601.75,-293.79 597.79,-297.75 593.83,-297.75"/>
<text text-anchor="middle" x="549.88" y="-280.45" font-family="Arial" font-size="14.00" fill="#c6c5fe">preset/index.ts</text>
</g>
<!-- executable/entry.ts&#45;&gt;preset/index.ts -->
<g id="edge5" class="edge">
<title>executable/entry.ts&#45;&gt;preset/index.ts</title>
<path fill="none" stroke="#757575" d="M255.23,-125.18C310.28,-155.3 452.02,-232.87 516.31,-268.05"/>
<polygon fill="#757575" stroke="#757575" points="514.52,-271.06 524.97,-272.79 517.88,-264.92 514.52,-271.06"/>
</g>
<!-- run.ts -->
<g id="node12" class="node">
<title>run.ts</title>
<path fill="none" stroke="#c6c5fe" d="M382.33,-124.75C382.33,-124.75 344.17,-124.75 344.17,-124.75 340.21,-124.75 336.25,-120.79 336.25,-116.83 336.25,-116.83 336.25,-108.92 336.25,-108.92 336.25,-104.96 340.21,-101 344.17,-101 344.17,-101 382.33,-101 382.33,-101 386.29,-101 390.25,-104.96 390.25,-108.92 390.25,-108.92 390.25,-116.83 390.25,-116.83 390.25,-120.79 386.29,-124.75 382.33,-124.75"/>
<text text-anchor="middle" x="363.25" y="-107.45" font-family="Arial" font-size="14.00" fill="#c6c5fe">run.ts</text>
</g>
<!-- executable/entry.ts&#45;&gt;run.ts -->
<g id="edge6" class="edge">
<title>executable/entry.ts&#45;&gt;run.ts</title>
<path fill="none" stroke="#757575" d="M296.36,-112.88C305.95,-112.88 315.57,-112.88 324.38,-112.88"/>
<polygon fill="#757575" stroke="#757575" points="324.3,-116.38 334.3,-112.88 324.3,-109.38 324.3,-116.38"/>
</g>
<!-- task.ts -->
<g id="node13" class="node">
<title>task.ts</title>
<path fill="none" stroke="#c6c5fe" d="M569.46,-23.75C569.46,-23.75 530.29,-23.75 530.29,-23.75 526.33,-23.75 522.38,-19.79 522.38,-15.83 522.38,-15.83 522.38,-7.92 522.38,-7.92 522.38,-3.96 526.33,0 530.29,0 530.29,0 569.46,0 569.46,0 573.42,0 577.38,-3.96 577.38,-7.92 577.38,-7.92 577.38,-15.83 577.38,-15.83 577.38,-19.79 573.42,-23.75 569.46,-23.75"/>
<text text-anchor="middle" x="549.88" y="-6.45" font-family="Arial" font-size="14.00" fill="#c6c5fe">task.ts</text>
</g>
<!-- executable/entry.ts&#45;&gt;task.ts -->
<g id="edge7" class="edge">
<title>executable/entry.ts&#45;&gt;task.ts</title>
<path fill="none" stroke="#757575" d="M271.75,-100.56C279.82,-97.83 288.22,-94.86 296,-91.88 356.93,-68.45 368.03,-51.82 430.5,-32.88 456.81,-24.89 487.39,-19.57 510.88,-16.27"/>
<polygon fill="#757575" stroke="#757575" points="511.17,-19.77 520.62,-14.98 510.25,-12.83 511.17,-19.77"/>
</g>
<!-- preset/graph.ts -->
<g id="node24" class="node">
<title>preset/graph.ts</title>
<path fill="none" stroke="#c6c5fe" d="M1266.08,-221.75C1266.08,-221.75 1175.92,-221.75 1175.92,-221.75 1171.96,-221.75 1168,-217.79 1168,-213.83 1168,-213.83 1168,-205.92 1168,-205.92 1168,-201.96 1171.96,-198 1175.92,-198 1175.92,-198 1266.08,-198 1266.08,-198 1270.04,-198 1274,-201.96 1274,-205.92 1274,-205.92 1274,-213.83 1274,-213.83 1274,-217.79 1270.04,-221.75 1266.08,-221.75"/>
<text text-anchor="middle" x="1221" y="-204.45" font-family="Arial" font-size="14.00" fill="#c6c5fe">preset/graph.ts</text>
</g>
<!-- preset/index.ts&#45;&gt;preset/graph.ts -->
<g id="edge32" class="edge">
<title>preset/index.ts&#45;&gt;preset/graph.ts</title>
<path fill="none" stroke="#757575" d="M602.02,-278.41C684.92,-266.5 853.84,-243.01 997.5,-227.88 1051.04,-222.24 1111.98,-217.42 1156.54,-214.19"/>
<polygon fill="#757575" stroke="#757575" points="1156.55,-217.7 1166.27,-213.49 1156.05,-210.71 1156.55,-217.7"/>
</g>
<!-- preset/resolution.ts -->
<g id="node25" class="node">
<title>preset/resolution.ts</title>
<path fill="none" stroke="#c6c5fe" d="M1119.58,-375.75C1119.58,-375.75 1005.42,-375.75 1005.42,-375.75 1001.46,-375.75 997.5,-371.79 997.5,-367.83 997.5,-367.83 997.5,-359.92 997.5,-359.92 997.5,-355.96 1001.46,-352 1005.42,-352 1005.42,-352 1119.58,-352 1119.58,-352 1123.54,-352 1127.5,-355.96 1127.5,-359.92 1127.5,-359.92 1127.5,-367.83 1127.5,-367.83 1127.5,-371.79 1123.54,-375.75 1119.58,-375.75"/>
<text text-anchor="middle" x="1062.5" y="-358.45" font-family="Arial" font-size="14.00" fill="#c6c5fe">preset/resolution.ts</text>
</g>
<!-- preset/index.ts&#45;&gt;preset/resolution.ts -->
<g id="edge33" class="edge">
<title>preset/index.ts&#45;&gt;preset/resolution.ts</title>
<path fill="none" stroke="#757575" d="M602.17,-293.71C692.58,-307.52 880.65,-336.25 985.94,-352.33"/>
<polygon fill="#757575" stroke="#757575" points="985.2,-355.76 995.62,-353.81 986.26,-348.84 985.2,-355.76"/>
</g>
<!-- preset/scripts.ts -->
<g id="node27" class="node">
<title>preset/scripts.ts</title>
<path fill="none" stroke="#c6c5fe" d="M950.96,-297.75C950.96,-297.75 856.29,-297.75 856.29,-297.75 852.33,-297.75 848.38,-293.79 848.38,-289.83 848.38,-289.83 848.38,-281.92 848.38,-281.92 848.38,-277.96 852.33,-274 856.29,-274 856.29,-274 950.96,-274 950.96,-274 954.92,-274 958.88,-277.96 958.88,-281.92 958.88,-281.92 958.88,-289.83 958.88,-289.83 958.88,-293.79 954.92,-297.75 950.96,-297.75"/>
<text text-anchor="middle" x="903.62" y="-280.45" font-family="Arial" font-size="14.00" fill="#c6c5fe">preset/scripts.ts</text>
</g>
<!-- preset/index.ts&#45;&gt;preset/scripts.ts -->
<g id="edge34" class="edge">
<title>preset/index.ts&#45;&gt;preset/scripts.ts</title>
<path fill="none" stroke="#757575" d="M602.02,-285.88C663.98,-285.88 768.5,-285.88 836.52,-285.88"/>
<polygon fill="#757575" stroke="#757575" points="836.43,-289.38 846.43,-285.88 836.43,-282.38 836.43,-289.38"/>
</g>
<!-- preset/setup.ts -->
<g id="node28" class="node">
<title>preset/setup.ts</title>
<path fill="none" stroke="#c6c5fe" d="M801.83,-435.75C801.83,-435.75 713.17,-435.75 713.17,-435.75 709.21,-435.75 705.25,-431.79 705.25,-427.83 705.25,-427.83 705.25,-419.92 705.25,-419.92 705.25,-415.96 709.21,-412 713.17,-412 713.17,-412 801.83,-412 801.83,-412 805.79,-412 809.75,-415.96 809.75,-419.92 809.75,-419.92 809.75,-427.83 809.75,-427.83 809.75,-431.79 805.79,-435.75 801.83,-435.75"/>
<text text-anchor="middle" x="757.5" y="-418.45" font-family="Arial" font-size="14.00" fill="#c6c5fe">preset/setup.ts</text>
</g>
<!-- preset/index.ts&#45;&gt;preset/setup.ts -->
<g id="edge35" class="edge">
<title>preset/index.ts&#45;&gt;preset/setup.ts</title>
<path fill="none" stroke="#757575" d="M569.12,-298.12C605.25,-322.37 686.06,-376.6 728.79,-405.28"/>
<polygon fill="#757575" stroke="#757575" points="726.78,-408.15 737.04,-410.81 730.68,-402.33 726.78,-408.15"/>
</g>
<!-- run.ts&#45;&gt;../types/@npmcli/run&#45;script/index.d.ts -->
<g id="edge50" class="edge">
<title>run.ts&#45;&gt;../types/@npmcli/run&#45;script/index.d.ts</title>
<path fill="none" stroke="#757575" d="M385.45,-100.64C398.17,-93.73 414.87,-85.39 430.5,-79.88 442.47,-75.65 455.37,-71.98 468.1,-68.82"/>
<polygon fill="#757575" stroke="#757575" points="468.82,-72.25 477.75,-66.53 467.21,-65.44 468.82,-72.25"/>
</g>
<!-- run.ts&#45;&gt;debugger.ts -->
<g id="edge51" class="edge">
<title>run.ts&#45;&gt;debugger.ts</title>
<path fill="none" stroke="#757575" d="M390.39,-115.02C453.36,-119.99 618.44,-131.88 756.5,-131.88 756.5,-131.88 756.5,-131.88 1222,-131.88 1338.1,-131.88 1473.67,-145.12 1547,-153.39"/>
<polygon fill="#757575" stroke="#757575" points="1546.39,-156.84 1556.72,-154.5 1547.18,-149.89 1546.39,-156.84"/>
</g>
<!-- run.ts&#45;&gt;preset/index.ts -->
<g id="edge53" class="edge">
<title>run.ts&#45;&gt;preset/index.ts</title>
<path fill="none" stroke="#757575" d="M374.89,-125.06C387.67,-139.51 409.96,-164.13 430.5,-183.88 461.89,-214.05 500.45,-246.48 524.85,-266.48"/>
<polygon fill="#757575" stroke="#757575" points="522.33,-268.94 532.29,-272.55 526.75,-263.51 522.33,-268.94"/>
</g>
<!-- run.ts&#45;&gt;task.ts -->
<g id="edge55" class="edge">
<title>run.ts&#45;&gt;task.ts</title>
<path fill="none" stroke="#757575" d="M372.69,-100.75C386.99,-80.55 415.85,-41.41 430.5,-32.88 454.84,-18.7 486.4,-13.64 510.81,-12.01"/>
<polygon fill="#757575" stroke="#757575" points="510.83,-15.52 520.65,-11.54 510.49,-8.52 510.83,-15.52"/>
</g>
<!-- package.ts -->
<g id="node21" class="node">
<title>package.ts</title>
<path fill="none" stroke="#c6c5fe" d="M1415.96,-377.75C1415.96,-377.75 1350.54,-377.75 1350.54,-377.75 1346.58,-377.75 1342.62,-373.79 1342.62,-369.83 1342.62,-369.83 1342.62,-361.92 1342.62,-361.92 1342.62,-357.96 1346.58,-354 1350.54,-354 1350.54,-354 1415.96,-354 1415.96,-354 1419.92,-354 1423.88,-357.96 1423.88,-361.92 1423.88,-361.92 1423.88,-369.83 1423.88,-369.83 1423.88,-373.79 1419.92,-377.75 1415.96,-377.75"/>
<text text-anchor="middle" x="1383.25" y="-360.45" font-family="Arial" font-size="14.00" fill="#c6c5fe">package.ts</text>
</g>
<!-- run.ts&#45;&gt;package.ts -->
<g id="edge52" class="edge">
<title>run.ts&#45;&gt;package.ts</title>
<path fill="none" stroke="#757575" d="M383.73,-125.11C396.52,-132.49 413.9,-141.32 430.5,-145.88 570.6,-184.32 611.22,-169.88 756.5,-169.88 756.5,-169.88 756.5,-169.88 1063.5,-169.88 1159.43,-169.88 1200.32,-133.29 1278.5,-188.88 1310.28,-211.47 1295.25,-234.97 1314.5,-268.88 1329.96,-296.11 1351.03,-325.3 1365.54,-344.46"/>
<polygon fill="#757575" stroke="#757575" points="1362.69,-346.5 1371.55,-352.3 1368.25,-342.24 1362.69,-346.5"/>
</g>
<!-- scripts.ts -->
<g id="node29" class="node">
<title>scripts.ts</title>
<path fill="none" stroke="#c6c5fe" d="M1409.96,-65.75C1409.96,-65.75 1356.54,-65.75 1356.54,-65.75 1352.58,-65.75 1348.62,-61.79 1348.62,-57.83 1348.62,-57.83 1348.62,-49.92 1348.62,-49.92 1348.62,-45.96 1352.58,-42 1356.54,-42 1356.54,-42 1409.96,-42 1409.96,-42 1413.92,-42 1417.88,-45.96 1417.88,-49.92 1417.88,-49.92 1417.88,-57.83 1417.88,-57.83 1417.88,-61.79 1413.92,-65.75 1409.96,-65.75"/>
<text text-anchor="middle" x="1383.25" y="-48.45" font-family="Arial" font-size="14.00" fill="#c6c5fe">scripts.ts</text>
</g>
<!-- run.ts&#45;&gt;scripts.ts -->
<g id="edge54" class="edge">
<title>run.ts&#45;&gt;scripts.ts</title>
<path fill="none" stroke="#757575" d="M390.39,-110.73C453.36,-105.76 618.44,-93.88 756.5,-93.88 756.5,-93.88 756.5,-93.88 904.62,-93.88 1063.97,-93.88 1252.18,-71.49 1336.91,-60.21"/>
<polygon fill="#757575" stroke="#757575" points="1337.22,-63.7 1346.66,-58.9 1336.28,-56.77 1337.22,-63.7"/>
</g>
<!-- task.ts&#45;&gt;debugger.ts -->
<g id="edge59" class="edge">
<title>task.ts&#45;&gt;debugger.ts</title>
<path fill="none" stroke="#757575" d="M577.65,-13.47C687.07,-20.33 1110.55,-50.03 1452,-117.88 1486.07,-124.65 1523.73,-135.31 1552.62,-144.2"/>
<polygon fill="#757575" stroke="#757575" points="1551.21,-147.42 1561.8,-147.05 1553.29,-140.74 1551.21,-147.42"/>
</g>
<!-- executable/error.ts -->
<g id="node14" class="node">
<title>executable/error.ts</title>
<path fill="none" stroke="#cfffac" d="M287.33,-82.75C287.33,-82.75 176.17,-82.75 176.17,-82.75 172.21,-82.75 168.25,-78.79 168.25,-74.83 168.25,-74.83 168.25,-66.92 168.25,-66.92 168.25,-62.96 172.21,-59 176.17,-59 176.17,-59 287.33,-59 287.33,-59 291.29,-59 295.25,-62.96 295.25,-66.92 295.25,-66.92 295.25,-74.83 295.25,-74.83 295.25,-78.79 291.29,-82.75 287.33,-82.75"/>
<text text-anchor="middle" x="231.75" y="-65.45" font-family="Arial" font-size="14.00" fill="#cfffac">executable/error.ts</text>
</g>
<!-- executable/index.ts -->
<g id="node15" class="node">
<title>executable/index.ts</title>
<path fill="none" stroke="#c6c5fe" d="M123.58,-103.75C123.58,-103.75 7.92,-103.75 7.92,-103.75 3.96,-103.75 0,-99.79 0,-95.83 0,-95.83 0,-87.92 0,-87.92 0,-83.96 3.96,-80 7.92,-80 7.92,-80 123.58,-80 123.58,-80 127.54,-80 131.5,-83.96 131.5,-87.92 131.5,-87.92 131.5,-95.83 131.5,-95.83 131.5,-99.79 127.54,-103.75 123.58,-103.75"/>
<text text-anchor="middle" x="65.75" y="-86.45" font-family="Arial" font-size="14.00" fill="#c6c5fe">executable/index.ts</text>
</g>
<!-- executable/index.ts&#45;&gt;executable/entry.ts -->
<g id="edge8" class="edge">
<title>executable/index.ts&#45;&gt;executable/entry.ts</title>
<path fill="none" stroke="#757575" d="M131.57,-100.17C139.54,-101.2 147.74,-102.25 155.84,-103.28"/>
<polygon fill="#757575" stroke="#757575" points="155.34,-106.75 165.71,-104.55 156.23,-99.8 155.34,-106.75"/>
</g>
<!-- executable/index.ts&#45;&gt;executable/error.ts -->
<g id="edge9" class="edge">
<title>executable/index.ts&#45;&gt;executable/error.ts</title>
<path fill="none" stroke="#757575" d="M131.57,-83.58C139.82,-82.52 148.31,-81.43 156.69,-80.36"/>
<polygon fill="#757575" stroke="#757575" points="157.03,-83.84 166.51,-79.1 156.15,-76.9 157.03,-83.84"/>
</g>
<!-- index.ts -->
<g id="node16" class="node">
<title>index.ts</title>
<path fill="none" stroke="#c6c5fe" d="M386.58,-633.75C386.58,-633.75 339.92,-633.75 339.92,-633.75 335.96,-633.75 332,-629.79 332,-625.83 332,-625.83 332,-617.92 332,-617.92 332,-613.96 335.96,-610 339.92,-610 339.92,-610 386.58,-610 386.58,-610 390.54,-610 394.5,-613.96 394.5,-617.92 394.5,-617.92 394.5,-625.83 394.5,-625.83 394.5,-629.79 390.54,-633.75 386.58,-633.75"/>
<text text-anchor="middle" x="363.25" y="-616.45" font-family="Arial" font-size="14.00" fill="#c6c5fe">index.ts</text>
</g>
<!-- index.ts&#45;&gt;../../types/lib/index.d.ts -->
<g id="edge10" class="edge">
<title>index.ts&#45;&gt;../../types/lib/index.d.ts</title>
<path fill="none" stroke="#757575" d="M392.67,-634.09C456.47,-660.36 616.47,-719.88 756.5,-719.88 756.5,-719.88 756.5,-719.88 1384.25,-719.88 1457.98,-719.88 1657.73,-746.69 1715.5,-700.88 1759.79,-665.74 1725.97,-629.32 1751.5,-578.88 1766.05,-550.13 1789.38,-521.26 1805.9,-502.59"/>
<polygon fill="#757575" stroke="#757575" points="1808.5,-504.94 1812.6,-495.17 1803.3,-500.24 1808.5,-504.94"/>
</g>
<!-- index.ts&#45;&gt;directive.ts -->
<g id="edge11" class="edge">
<title>index.ts&#45;&gt;directive.ts</title>
<path fill="none" stroke="#757575" d="M394.7,-623.51C461.77,-627.1 622.81,-635.72 705.55,-640.15"/>
<polygon fill="#757575" stroke="#757575" points="705.24,-643.64 715.41,-640.68 705.61,-636.65 705.24,-643.64"/>
</g>
<!-- index.ts&#45;&gt;preset/index.ts -->
<g id="edge13" class="edge">
<title>index.ts&#45;&gt;preset/index.ts</title>
<path fill="none" stroke="#757575" d="M371.04,-609.52C398.47,-559.6 501.31,-372.44 536.77,-307.91"/>
<polygon fill="#757575" stroke="#757575" points="539.74,-309.77 541.49,-299.32 533.61,-306.39 539.74,-309.77"/>
</g>
<!-- io.ts -->
<g id="node17" class="node">
<title>io.ts</title>
<path fill="none" stroke="#c6c5fe" d="M1240.08,-574.75C1240.08,-574.75 1201.92,-574.75 1201.92,-574.75 1197.96,-574.75 1194,-570.79 1194,-566.83 1194,-566.83 1194,-558.92 1194,-558.92 1194,-554.96 1197.96,-551 1201.92,-551 1201.92,-551 1240.08,-551 1240.08,-551 1244.04,-551 1248,-554.96 1248,-558.92 1248,-558.92 1248,-566.83 1248,-566.83 1248,-570.79 1244.04,-574.75 1240.08,-574.75"/>
<text text-anchor="middle" x="1221" y="-557.45" font-family="Arial" font-size="14.00" fill="#c6c5fe">io.ts</text>
</g>
<!-- index.ts&#45;&gt;io.ts -->
<g id="edge12" class="edge">
<title>index.ts&#45;&gt;io.ts</title>
<path fill="none" stroke="#757575" d="M383.74,-609.66C396.53,-602.28 413.9,-593.46 430.5,-588.88 570.58,-550.21 611.19,-563.88 756.5,-563.88 756.5,-563.88 756.5,-563.88 904.62,-563.88 1005.02,-563.88 1123.4,-563.36 1182.49,-563.07"/>
<polygon fill="#757575" stroke="#757575" points="1182.34,-566.57 1192.32,-563.02 1182.3,-559.57 1182.34,-566.57"/>
</g>
<!-- template/index.ts -->
<g id="node18" class="node">
<title>template/index.ts</title>
<path fill="none" stroke="#c6c5fe" d="M1434.71,-613.75C1434.71,-613.75 1331.79,-613.75 1331.79,-613.75 1327.83,-613.75 1323.88,-609.79 1323.88,-605.83 1323.88,-605.83 1323.88,-597.92 1323.88,-597.92 1323.88,-593.96 1327.83,-590 1331.79,-590 1331.79,-590 1434.71,-590 1434.71,-590 1438.67,-590 1442.62,-593.96 1442.62,-597.92 1442.62,-597.92 1442.62,-605.83 1442.62,-605.83 1442.62,-609.79 1438.67,-613.75 1434.71,-613.75"/>
<text text-anchor="middle" x="1383.25" y="-596.45" font-family="Arial" font-size="14.00" fill="#c6c5fe">template/index.ts</text>
</g>
<!-- index.ts&#45;&gt;template/index.ts -->
<g id="edge14" class="edge">
<title>index.ts&#45;&gt;template/index.ts</title>
<path fill="none" stroke="#757575" d="M394.99,-619.37C461.09,-614.21 621.68,-602.88 756.5,-602.88 756.5,-602.88 756.5,-602.88 1063.5,-602.88 1149.12,-602.88 1247.66,-602.51 1312.25,-602.22"/>
<polygon fill="#757575" stroke="#757575" points="1312,-605.72 1321.99,-602.18 1311.97,-598.72 1312,-605.72"/>
</g>
<!-- utilities/index.ts -->
<g id="node19" class="node">
<title>utilities/index.ts</title>
<path fill="none" stroke="#c6c5fe" d="M1872.08,-611.75C1872.08,-611.75 1780.42,-611.75 1780.42,-611.75 1776.46,-611.75 1772.5,-607.79 1772.5,-603.83 1772.5,-603.83 1772.5,-595.92 1772.5,-595.92 1772.5,-591.96 1776.46,-588 1780.42,-588 1780.42,-588 1872.08,-588 1872.08,-588 1876.04,-588 1880,-591.96 1880,-595.92 1880,-595.92 1880,-603.83 1880,-603.83 1880,-607.79 1876.04,-611.75 1872.08,-611.75"/>
<text text-anchor="middle" x="1826.25" y="-594.45" font-family="Arial" font-size="14.00" fill="#c6c5fe">utilities/index.ts</text>
</g>
<!-- index.ts&#45;&gt;utilities/index.ts -->
<g id="edge15" class="edge">
<title>index.ts&#45;&gt;utilities/index.ts</title>
<path fill="none" stroke="#757575" d="M367.36,-633.97C374.22,-657.83 393.06,-710.66 430.5,-733.88 553.97,-810.44 611.22,-757.88 756.5,-757.88 756.5,-757.88 756.5,-757.88 1384.25,-757.88 1531.86,-757.88 1584.47,-801.83 1715.5,-733.88 1763.5,-708.98 1798.21,-652.96 1814.62,-621.81"/>
<polygon fill="#757575" stroke="#757575" points="1817.55,-623.77 1818.97,-613.27 1811.32,-620.59 1817.55,-623.77"/>
</g>
<!-- io.ts&#45;&gt;../../types/lib/index.d.ts -->
<g id="edge16" class="edge">
<title>io.ts&#45;&gt;../../types/lib/index.d.ts</title>
<path fill="none" stroke="#757575" d="M1248.28,-561.24C1291.07,-558.42 1378.42,-552.07 1452,-542.88 1554.72,-530.03 1672.48,-509.87 1747.8,-496.28"/>
<polygon fill="#757575" stroke="#757575" points="1748.35,-499.74 1757.57,-494.51 1747.1,-492.85 1748.35,-499.74"/>
</g>
<!-- io.ts&#45;&gt;template/index.ts -->
<g id="edge18" class="edge">
<title>io.ts&#45;&gt;template/index.ts</title>
<path fill="none" stroke="#757575" d="M1248.46,-569.32C1268.05,-574.08 1295.57,-580.78 1320.55,-586.86"/>
<polygon fill="#757575" stroke="#757575" points="1319.43,-590.19 1329.98,-589.15 1321.09,-583.39 1319.43,-590.19"/>
</g>
<!-- template/dynamic.ts -->
<g id="node20" class="node">
<title>template/dynamic.ts</title>
<path fill="none" stroke="#cfffac" d="M1444.08,-533.75C1444.08,-533.75 1322.42,-533.75 1322.42,-533.75 1318.46,-533.75 1314.5,-529.79 1314.5,-525.83 1314.5,-525.83 1314.5,-517.92 1314.5,-517.92 1314.5,-513.96 1318.46,-510 1322.42,-510 1322.42,-510 1444.08,-510 1444.08,-510 1448.04,-510 1452,-513.96 1452,-517.92 1452,-517.92 1452,-525.83 1452,-525.83 1452,-529.79 1448.04,-533.75 1444.08,-533.75"/>
<text text-anchor="middle" x="1383.25" y="-516.45" font-family="Arial" font-size="14.00" fill="#cfffac">template/dynamic.ts</text>
</g>
<!-- io.ts&#45;&gt;template/dynamic.ts -->
<g id="edge17" class="edge">
<title>io.ts&#45;&gt;template/dynamic.ts</title>
<path fill="none" stroke="#757575" d="M1248.46,-556.1C1268.67,-550.93 1297.32,-543.61 1322.92,-537.06"/>
<polygon fill="#757575" stroke="#757575" points="1323.76,-540.45 1332.58,-534.58 1322.02,-533.67 1323.76,-540.45"/>
</g>
<!-- template/merge.ts -->
<g id="node30" class="node">
<title>template/merge.ts</title>
<path fill="none" stroke="#c6c5fe" d="M1656.58,-691.75C1656.58,-691.75 1546.92,-691.75 1546.92,-691.75 1542.96,-691.75 1539,-687.79 1539,-683.83 1539,-683.83 1539,-675.92 1539,-675.92 1539,-671.96 1542.96,-668 1546.92,-668 1546.92,-668 1656.58,-668 1656.58,-668 1660.54,-668 1664.5,-671.96 1664.5,-675.92 1664.5,-675.92 1664.5,-683.83 1664.5,-683.83 1664.5,-687.79 1660.54,-691.75 1656.58,-691.75"/>
<text text-anchor="middle" x="1601.75" y="-674.45" font-family="Arial" font-size="14.00" fill="#c6c5fe">template/merge.ts</text>
</g>
<!-- template/index.ts&#45;&gt;template/merge.ts -->
<g id="edge60" class="edge">
<title>template/index.ts&#45;&gt;template/merge.ts</title>
<path fill="none" stroke="#757575" d="M1418.56,-614.23C1455.69,-627.61 1515.06,-649 1555.88,-663.71"/>
<polygon fill="#757575" stroke="#757575" points="1554.59,-666.96 1565.18,-667.06 1556.96,-660.38 1554.59,-666.96"/>
</g>
<!-- template/substitute.ts -->
<g id="node31" class="node">
<title>template/substitute.ts</title>
<path fill="none" stroke="#c6c5fe" d="M1665.96,-611.75C1665.96,-611.75 1537.54,-611.75 1537.54,-611.75 1533.58,-611.75 1529.62,-607.79 1529.62,-603.83 1529.62,-603.83 1529.62,-595.92 1529.62,-595.92 1529.62,-591.96 1533.58,-588 1537.54,-588 1537.54,-588 1665.96,-588 1665.96,-588 1669.92,-588 1673.88,-591.96 1673.88,-595.92 1673.88,-595.92 1673.88,-603.83 1673.88,-603.83 1673.88,-607.79 1669.92,-611.75 1665.96,-611.75"/>
<text text-anchor="middle" x="1601.75" y="-594.45" font-family="Arial" font-size="14.00" fill="#c6c5fe">template/substitute.ts</text>
</g>
<!-- template/index.ts&#45;&gt;template/substitute.ts -->
<g id="edge61" class="edge">
<title>template/index.ts&#45;&gt;template/substitute.ts</title>
<path fill="none" stroke="#757575" d="M1443.12,-601.33C1466.14,-601.12 1492.95,-600.87 1517.87,-600.64"/>
<polygon fill="#757575" stroke="#757575" points="1517.68,-604.14 1527.65,-600.55 1517.61,-597.14 1517.68,-604.14"/>
</g>
<!-- utilities/display.ts -->
<g id="node32" class="node">
<title>utilities/display.ts</title>
<path fill="none" stroke="#cfffac" d="M2063.21,-569.75C2063.21,-569.75 1962.54,-569.75 1962.54,-569.75 1958.58,-569.75 1954.62,-565.79 1954.62,-561.83 1954.62,-561.83 1954.62,-553.92 1954.62,-553.92 1954.62,-549.96 1958.58,-546 1962.54,-546 1962.54,-546 2063.21,-546 2063.21,-546 2067.17,-546 2071.12,-549.96 2071.12,-553.92 2071.12,-553.92 2071.12,-561.83 2071.12,-561.83 2071.12,-565.79 2067.17,-569.75 2063.21,-569.75"/>
<text text-anchor="middle" x="2012.88" y="-552.45" font-family="Arial" font-size="14.00" fill="#cfffac">utilities/display.ts</text>
</g>
<!-- utilities/index.ts&#45;&gt;utilities/display.ts -->
<g id="edge65" class="edge">
<title>utilities/index.ts&#45;&gt;utilities/display.ts</title>
<path fill="none" stroke="#757575" d="M1880.16,-587.84C1900.84,-583.13 1924.78,-577.69 1946.53,-572.74"/>
<polygon fill="#757575" stroke="#757575" points="1947.23,-576.17 1956.2,-570.54 1945.68,-569.35 1947.23,-576.17"/>
</g>
<!-- utilities/mapping.ts -->
<g id="node33" class="node">
<title>utilities/mapping.ts</title>
<path fill="none" stroke="#cfffac" d="M2068.83,-653.75C2068.83,-653.75 1956.92,-653.75 1956.92,-653.75 1952.96,-653.75 1949,-649.79 1949,-645.83 1949,-645.83 1949,-637.92 1949,-637.92 1949,-633.96 1952.96,-630 1956.92,-630 1956.92,-630 2068.83,-630 2068.83,-630 2072.79,-630 2076.75,-633.96 2076.75,-637.92 2076.75,-637.92 2076.75,-645.83 2076.75,-645.83 2076.75,-649.79 2072.79,-653.75 2068.83,-653.75"/>
<text text-anchor="middle" x="2012.88" y="-636.45" font-family="Arial" font-size="14.00" fill="#cfffac">utilities/mapping.ts</text>
</g>
<!-- utilities/index.ts&#45;&gt;utilities/mapping.ts -->
<g id="edge66" class="edge">
<title>utilities/index.ts&#45;&gt;utilities/mapping.ts</title>
<path fill="none" stroke="#757575" d="M1880.16,-611.91C1900.84,-616.62 1924.78,-622.06 1946.53,-627.01"/>
<polygon fill="#757575" stroke="#757575" points="1945.68,-630.4 1956.2,-629.21 1947.23,-623.58 1945.68,-630.4"/>
</g>
<!-- utilities/object.ts -->
<g id="node34" class="node">
<title>utilities/object.ts</title>
<path fill="none" stroke="#cfffac" d="M2060.58,-611.75C2060.58,-611.75 1965.17,-611.75 1965.17,-611.75 1961.21,-611.75 1957.25,-607.79 1957.25,-603.83 1957.25,-603.83 1957.25,-595.92 1957.25,-595.92 1957.25,-591.96 1961.21,-588 1965.17,-588 1965.17,-588 2060.58,-588 2060.58,-588 2064.54,-588 2068.5,-591.96 2068.5,-595.92 2068.5,-595.92 2068.5,-603.83 2068.5,-603.83 2068.5,-607.79 2064.54,-611.75 2060.58,-611.75"/>
<text text-anchor="middle" x="2012.88" y="-594.45" font-family="Arial" font-size="14.00" fill="#cfffac">utilities/object.ts</text>
</g>
<!-- utilities/index.ts&#45;&gt;utilities/object.ts -->
<g id="edge67" class="edge">
<title>utilities/index.ts&#45;&gt;utilities/object.ts</title>
<path fill="none" stroke="#757575" d="M1880.16,-599.88C1900.57,-599.88 1924.15,-599.88 1945.66,-599.88"/>
<polygon fill="#757575" stroke="#757575" points="1945.52,-603.38 1955.52,-599.88 1945.52,-596.38 1945.52,-603.38"/>
</g>
<!-- package.ts&#45;&gt;../types/@npmcli/arborist/index.d.ts -->
<g id="edge19" class="edge">
<title>package.ts&#45;&gt;../types/@npmcli/arborist/index.d.ts</title>
<path fill="none" stroke="#757575" d="M1424.21,-365.14C1439.36,-364.86 1457.52,-364.52 1476.35,-364.17"/>
<polygon fill="#757575" stroke="#757575" points="1476.37,-367.67 1486.3,-363.99 1476.24,-360.67 1476.37,-367.67"/>
</g>
<!-- package.ts&#45;&gt;../types/@npmcli/config/index.d.ts -->
<g id="edge20" class="edge">
<title>package.ts&#45;&gt;../types/@npmcli/config/index.d.ts</title>
<path fill="none" stroke="#757575" d="M1424.21,-372.89C1450.77,-377.55 1486.6,-383.84 1519.04,-389.53"/>
<polygon fill="#757575" stroke="#757575" points="1518.4,-392.98 1528.86,-391.26 1519.61,-386.08 1518.4,-392.98"/>
</g>
<!-- preset/config.ts -->
<g id="node22" class="node">
<title>preset/config.ts</title>
<path fill="none" stroke="#c6c5fe" d="M1429.08,-259.75C1429.08,-259.75 1337.42,-259.75 1337.42,-259.75 1333.46,-259.75 1329.5,-255.79 1329.5,-251.83 1329.5,-251.83 1329.5,-243.92 1329.5,-243.92 1329.5,-239.96 1333.46,-236 1337.42,-236 1337.42,-236 1429.08,-236 1429.08,-236 1433.04,-236 1437,-239.96 1437,-243.92 1437,-243.92 1437,-251.83 1437,-251.83 1437,-255.79 1433.04,-259.75 1429.08,-259.75"/>
<text text-anchor="middle" x="1383.25" y="-242.45" font-family="Arial" font-size="14.00" fill="#c6c5fe">preset/config.ts</text>
</g>
<!-- preset/config.ts&#45;&gt;../../types/lib/index.d.ts -->
<g id="edge21" class="edge">
<title>preset/config.ts&#45;&gt;../../types/lib/index.d.ts</title>
<path fill="none" stroke="#757575" d="M1437.29,-244.91C1507.06,-243.63 1630.72,-250.66 1715.5,-307.88 1771.04,-345.35 1804.11,-421.34 1817.83,-459.27"/>
<polygon fill="#757575" stroke="#757575" points="1814.38,-460.01 1820.97,-468.31 1820.99,-457.71 1814.38,-460.01"/>
</g>
<!-- preset/config.ts&#45;&gt;debugger.ts -->
<g id="edge22" class="edge">
<title>preset/config.ts&#45;&gt;debugger.ts</title>
<path fill="none" stroke="#757575" d="M1414.35,-235.64C1452.3,-220.22 1517.67,-193.64 1560.04,-176.42"/>
<polygon fill="#757575" stroke="#757575" points="1561.21,-179.73 1569.15,-172.72 1558.57,-173.24 1561.21,-179.73"/>
</g>
<!-- preset/content.ts -->
<g id="node23" class="node">
<title>preset/content.ts</title>
<path fill="none" stroke="#c6c5fe" d="M953.58,-455.75C953.58,-455.75 853.67,-455.75 853.67,-455.75 849.71,-455.75 845.75,-451.79 845.75,-447.83 845.75,-447.83 845.75,-439.92 845.75,-439.92 845.75,-435.96 849.71,-432 853.67,-432 853.67,-432 953.58,-432 953.58,-432 957.54,-432 961.5,-435.96 961.5,-439.92 961.5,-439.92 961.5,-447.83 961.5,-447.83 961.5,-451.79 957.54,-455.75 953.58,-455.75"/>
<text text-anchor="middle" x="903.62" y="-438.45" font-family="Arial" font-size="14.00" fill="#c6c5fe">preset/content.ts</text>
</g>
<!-- preset/content.ts&#45;&gt;../../types/lib/index.d.ts -->
<g id="edge23" class="edge">
<title>preset/content.ts&#45;&gt;../../types/lib/index.d.ts</title>
<path fill="none" stroke="#757575" d="M961.87,-446.24C1118.38,-452.7 1554.09,-470.68 1739.73,-478.34"/>
<polygon fill="#757575" stroke="#757575" points="1739.4,-481.83 1749.54,-478.75 1739.69,-474.84 1739.4,-481.83"/>
</g>
<!-- preset/content.ts&#45;&gt;io.ts -->
<g id="edge24" class="edge">
<title>preset/content.ts&#45;&gt;io.ts</title>
<path fill="none" stroke="#757575" d="M937.19,-456.16C996.43,-478.51 1121.41,-525.68 1183.46,-549.09"/>
<polygon fill="#757575" stroke="#757575" points="1181.92,-552.25 1192.51,-552.5 1184.39,-545.7 1181.92,-552.25"/>
</g>
<!-- preset/content.ts&#45;&gt;preset/graph.ts -->
<g id="edge25" class="edge">
<title>preset/content.ts&#45;&gt;preset/graph.ts</title>
<path fill="none" stroke="#757575" d="M914.01,-431.69C929.82,-411.66 963.39,-371.16 997.5,-342.88 1049.91,-299.42 1070.64,-299.3 1127.5,-261.88 1143.77,-251.17 1146.66,-246.66 1163.5,-236.88 1169.28,-233.52 1175.54,-230.21 1181.73,-227.13"/>
<polygon fill="#757575" stroke="#757575" points="1183.11,-230.35 1190.59,-222.85 1180.06,-224.05 1183.11,-230.35"/>
</g>
<!-- preset/content.ts&#45;&gt;preset/resolution.ts -->
<g id="edge26" class="edge">
<title>preset/content.ts&#45;&gt;preset/resolution.ts</title>
<path fill="none" stroke="#757575" d="M928.79,-431.55C955.16,-418.1 997.59,-396.47 1027.35,-381.29"/>
<polygon fill="#757575" stroke="#757575" points="1028.64,-384.56 1035.96,-376.9 1025.46,-378.33 1028.64,-384.56"/>
</g>
<!-- preset/graph.ts&#45;&gt;../../types/lib/index.d.ts -->
<g id="edge29" class="edge">
<title>preset/graph.ts&#45;&gt;../../types/lib/index.d.ts</title>
<path fill="none" stroke="#757575" d="M1274.46,-206.7C1386.62,-200.94 1645.24,-193.47 1715.5,-241.88 1790.28,-293.4 1815.05,-409 1822.43,-458.58"/>
<polygon fill="#757575" stroke="#757575" points="1818.92,-458.75 1823.74,-468.18 1825.85,-457.8 1818.92,-458.75"/>
</g>
<!-- preset/graph.ts&#45;&gt;debugger.ts -->
<g id="edge30" class="edge">
<title>preset/graph.ts&#45;&gt;debugger.ts</title>
<path fill="none" stroke="#757575" d="M1274.27,-200.34C1287.38,-198.08 1301.44,-195.78 1314.5,-193.88 1395.35,-182.09 1489.49,-171.51 1547.09,-165.39"/>
<polygon fill="#757575" stroke="#757575" points="1547.38,-168.88 1556.96,-164.35 1546.64,-161.92 1547.38,-168.88"/>
</g>
<!-- preset/graph.ts&#45;&gt;preset/config.ts -->
<g id="edge31" class="edge">
<title>preset/graph.ts&#45;&gt;preset/config.ts</title>
<path fill="none" stroke="#757575" d="M1274.03,-222.21C1288.52,-225.65 1304.41,-229.42 1319.44,-232.98"/>
<polygon fill="#757575" stroke="#757575" points="1318.2,-236.28 1328.74,-235.19 1319.81,-229.47 1318.2,-236.28"/>
</g>
<!-- preset/resolution.ts&#45;&gt;../../types/lib/index.d.ts -->
<g id="edge36" class="edge">
<title>preset/resolution.ts&#45;&gt;../../types/lib/index.d.ts</title>
<path fill="none" stroke="#757575" d="M1119.05,-351.53C1133.45,-348.82 1148.99,-346.33 1163.5,-344.88 1285.56,-332.62 1605.29,-287 1715.5,-340.88 1766.11,-365.61 1800.14,-426.2 1815.65,-459.33"/>
<polygon fill="#757575" stroke="#757575" points="1812.44,-460.74 1819.74,-468.42 1818.83,-457.87 1812.44,-460.74"/>
</g>
<!-- preset/resolution.ts&#45;&gt;debugger.ts -->
<g id="edge37" class="edge">
<title>preset/resolution.ts&#45;&gt;debugger.ts</title>
<path fill="none" stroke="#757575" d="M1082.21,-351.72C1101.71,-339.66 1133.53,-321.6 1163.5,-311.88 1286.81,-271.87 1332.1,-318.18 1452,-268.88 1503.34,-247.76 1553.38,-205.24 1580.32,-180"/>
<polygon fill="#757575" stroke="#757575" points="1582.63,-182.64 1587.45,-173.2 1577.79,-177.57 1582.63,-182.64"/>
</g>
<!-- preset/resolution.ts&#45;&gt;io.ts -->
<g id="edge38" class="edge">
<title>preset/resolution.ts&#45;&gt;io.ts</title>
<path fill="none" stroke="#757575" d="M1071.99,-376.06C1088.83,-400.04 1127.9,-454.89 1163.5,-498.88 1175.65,-513.89 1190.08,-530.21 1201.31,-542.61"/>
<polygon fill="#757575" stroke="#757575" points="1198.51,-544.73 1207.83,-549.76 1203.68,-540.01 1198.51,-544.73"/>
</g>
<!-- preset/resolution.ts&#45;&gt;template/index.ts -->
<g id="edge42" class="edge">
<title>preset/resolution.ts&#45;&gt;template/index.ts</title>
<path fill="none" stroke="#757575" d="M1079.75,-376C1131.75,-414.84 1294.42,-536.29 1357.19,-583.16"/>
<polygon fill="#757575" stroke="#757575" points="1354.72,-585.69 1364.82,-588.86 1358.91,-580.08 1354.72,-585.69"/>
</g>
<!-- preset/resolution.ts&#45;&gt;utilities/index.ts -->
<g id="edge43" class="edge">
<title>preset/resolution.ts&#45;&gt;utilities/index.ts</title>
<path fill="none" stroke="#757575" d="M1103.38,-376.23C1231.55,-415.94 1632.77,-540.24 1774.8,-584.25"/>
<polygon fill="#757575" stroke="#757575" points="1773.73,-587.58 1784.32,-587.19 1775.8,-580.89 1773.73,-587.58"/>
</g>
<!-- preset/resolution.ts&#45;&gt;preset/config.ts -->
<g id="edge39" class="edge">
<title>preset/resolution.ts&#45;&gt;preset/config.ts</title>
<path fill="none" stroke="#757575" d="M1105.45,-351.58C1113.34,-348.01 1121.11,-343.5 1127.5,-337.88 1151.99,-316.3 1136.35,-291.99 1163.5,-273.88 1208.67,-243.74 1271.01,-239.03 1317.59,-240.82"/>
<polygon fill="#757575" stroke="#757575" points="1317.4,-244.31 1327.56,-241.32 1317.75,-237.32 1317.4,-244.31"/>
</g>
<!-- preset/resolution.ts&#45;&gt;preset/graph.ts -->
<g id="edge41" class="edge">
<title>preset/resolution.ts&#45;&gt;preset/graph.ts</title>
<path fill="none" stroke="#757575" d="M1107.9,-351.63C1115.13,-348.1 1122.03,-343.6 1127.5,-337.88 1160.69,-303.1 1131.11,-271.4 1163.5,-235.88 1166.16,-232.95 1169.22,-230.34 1172.5,-228"/>
<polygon fill="#757575" stroke="#757575" points="1174.19,-231.07 1180.93,-222.89 1170.56,-225.08 1174.19,-231.07"/>
</g>
<!-- preset/context.ts -->
<g id="node26" class="node">
<title>preset/context.ts</title>
<path fill="none" stroke="#c6c5fe" d="M1270.58,-377.75C1270.58,-377.75 1171.42,-377.75 1171.42,-377.75 1167.46,-377.75 1163.5,-373.79 1163.5,-369.83 1163.5,-369.83 1163.5,-361.92 1163.5,-361.92 1163.5,-357.96 1167.46,-354 1171.42,-354 1171.42,-354 1270.58,-354 1270.58,-354 1274.54,-354 1278.5,-357.96 1278.5,-361.92 1278.5,-361.92 1278.5,-369.83 1278.5,-369.83 1278.5,-373.79 1274.54,-377.75 1270.58,-377.75"/>
<text text-anchor="middle" x="1221" y="-360.45" font-family="Arial" font-size="14.00" fill="#c6c5fe">preset/context.ts</text>
</g>
<!-- preset/resolution.ts&#45;&gt;preset/context.ts -->
<g id="edge40" class="edge">
<title>preset/resolution.ts&#45;&gt;preset/context.ts</title>
<path fill="none" stroke="#757575" d="M1127.61,-364.69C1135.64,-364.8 1143.88,-364.9 1151.97,-365.01"/>
<polygon fill="#757575" stroke="#757575" points="1151.71,-368.5 1161.75,-365.13 1151.8,-361.5 1151.71,-368.5"/>
</g>
<!-- preset/context.ts&#45;&gt;../../types/lib/index.d.ts -->
<g id="edge27" class="edge">
<title>preset/context.ts&#45;&gt;../../types/lib/index.d.ts</title>
<path fill="none" stroke="#757575" d="M1275.79,-378.16C1288.48,-381.04 1301.96,-384.08 1314.5,-386.88 1391.55,-404.06 1410.5,-409.85 1488,-424.88 1573.45,-441.44 1671.62,-457.73 1739.93,-468.62"/>
<polygon fill="#757575" stroke="#757575" points="1739.13,-472.04 1749.56,-470.15 1740.23,-465.12 1739.13,-472.04"/>
</g>
<!-- preset/context.ts&#45;&gt;package.ts -->
<g id="edge28" class="edge">
<title>preset/context.ts&#45;&gt;package.ts</title>
<path fill="none" stroke="#757575" d="M1278.95,-365.88C1296.05,-365.88 1314.7,-365.88 1331.38,-365.88"/>
<polygon fill="#757575" stroke="#757575" points="1331.06,-369.38 1341.06,-365.88 1331.06,-362.38 1331.06,-369.38"/>
</g>
<!-- preset/scripts.ts&#45;&gt;preset/graph.ts -->
<g id="edge45" class="edge">
<title>preset/scripts.ts&#45;&gt;preset/graph.ts</title>
<path fill="none" stroke="#757575" d="M955.65,-273.58C1010.76,-260.3 1098.59,-239.13 1157.73,-224.88"/>
<polygon fill="#757575" stroke="#757575" points="1158.42,-228.32 1167.32,-222.57 1156.78,-221.51 1158.42,-228.32"/>
</g>
<!-- preset/scripts.ts&#45;&gt;preset/resolution.ts -->
<g id="edge46" class="edge">
<title>preset/scripts.ts&#45;&gt;preset/resolution.ts</title>
<path fill="none" stroke="#757575" d="M929.48,-298.23C955.64,-311.24 997.04,-331.82 1026.5,-346.47"/>
<polygon fill="#757575" stroke="#757575" points="1024.89,-349.58 1035.4,-350.9 1028.01,-343.31 1024.89,-349.58"/>
</g>
<!-- preset/scripts.ts&#45;&gt;preset/context.ts -->
<g id="edge44" class="edge">
<title>preset/scripts.ts&#45;&gt;preset/context.ts</title>
<path fill="none" stroke="#757575" d="M953.21,-298.2C1009,-312.35 1100.54,-335.57 1160.54,-350.79"/>
<polygon fill="#757575" stroke="#757575" points="1159.34,-354.1 1169.89,-353.16 1161.06,-347.31 1159.34,-354.1"/>
</g>
<!-- preset/setup.ts&#45;&gt;package.ts -->
<g id="edge47" class="edge">
<title>preset/setup.ts&#45;&gt;package.ts</title>
<path fill="none" stroke="#757575" d="M778.05,-436.13C795.16,-446.09 821.08,-459.37 845.75,-464.88 895.96,-476.08 910.4,-470.81 961.5,-464.88 1097.91,-449.04 1254.3,-405.26 1332.4,-381.57"/>
<polygon fill="#757575" stroke="#757575" points="1333.35,-384.94 1341.9,-378.67 1331.31,-378.25 1333.35,-384.94"/>
</g>
<!-- preset/setup.ts&#45;&gt;preset/content.ts -->
<g id="edge48" class="edge">
<title>preset/setup.ts&#45;&gt;preset/content.ts</title>
<path fill="none" stroke="#757575" d="M810.13,-431.04C817.92,-432.12 826.06,-433.25 834.15,-434.37"/>
<polygon fill="#757575" stroke="#757575" points="833.61,-437.83 843.99,-435.74 834.57,-430.9 833.61,-437.83"/>
</g>
<!-- preset/setup.ts&#45;&gt;preset/context.ts -->
<g id="edge49" class="edge">
<title>preset/setup.ts&#45;&gt;preset/context.ts</title>
<path fill="none" stroke="#757575" d="M810.04,-420.02C881.56,-414.31 1014.83,-402.36 1127.5,-384.88 1135.84,-383.58 1144.56,-382.04 1153.17,-380.4"/>
<polygon fill="#757575" stroke="#757575" points="1153.77,-383.85 1162.91,-378.5 1152.43,-376.98 1153.77,-383.85"/>
</g>
<!-- scripts.ts&#45;&gt;../types/mvdan&#45;sh/index.d.ts -->
<g id="edge56" class="edge">
<title>scripts.ts&#45;&gt;../types/mvdan&#45;sh/index.d.ts</title>
<path fill="none" stroke="#757575" d="M1418.08,-53.88C1439.71,-53.88 1469.02,-53.88 1497.82,-53.88"/>
<polygon fill="#757575" stroke="#757575" points="1497.73,-57.38 1507.73,-53.88 1497.73,-50.38 1497.73,-57.38"/>
</g>
<!-- scripts.ts&#45;&gt;debugger.ts -->
<g id="edge57" class="edge">
<title>scripts.ts&#45;&gt;debugger.ts</title>
<path fill="none" stroke="#757575" d="M1418.04,-63.6C1429.35,-67.68 1441.69,-73.08 1452,-79.88 1471.16,-92.5 1468.83,-104.27 1488,-116.88 1506.01,-128.72 1527.75,-137.99 1547.32,-144.84"/>
<polygon fill="#757575" stroke="#757575" points="1546.21,-148.16 1556.8,-148.01 1548.43,-141.52 1546.21,-148.16"/>
</g>
<!-- scripts.ts&#45;&gt;utilities/index.ts -->
<g id="edge58" class="edge">
<title>scripts.ts&#45;&gt;utilities/index.ts</title>
<path fill="none" stroke="#757575" d="M1418.18,-61.48C1500.65,-80.12 1705.63,-127.37 1715.5,-138.88 1768.43,-200.57 1721.78,-427.22 1751.5,-502.88 1763.2,-532.66 1786.82,-561.11 1804.19,-579.4"/>
<polygon fill="#757575" stroke="#757575" points="1801.58,-581.74 1811.08,-586.45 1806.59,-576.85 1801.58,-581.74"/>
</g>
<!-- template/merge.ts&#45;&gt;utilities/index.ts -->
<g id="edge62" class="edge">
<title>template/merge.ts&#45;&gt;utilities/index.ts</title>
<path fill="none" stroke="#757575" d="M1664.93,-668.23C1681.58,-664.39 1699.41,-659.6 1715.5,-653.88 1743.01,-644.08 1772.63,-629.23 1794.16,-617.58"/>
<polygon fill="#757575" stroke="#757575" points="1795.62,-620.77 1802.7,-612.88 1792.25,-614.63 1795.62,-620.77"/>
</g>
<!-- template/substitute.ts&#45;&gt;../../types/lib/index.d.ts -->
<g id="edge63" class="edge">
<title>template/substitute.ts&#45;&gt;../../types/lib/index.d.ts</title>
<path fill="none" stroke="#757575" d="M1674.29,-588.73C1688.38,-585.07 1702.73,-580.23 1715.5,-573.88 1751.72,-555.83 1786.24,-523.55 1806.59,-502.42"/>
<polygon fill="#757575" stroke="#757575" points="1809.06,-504.91 1813.37,-495.23 1803.96,-500.11 1809.06,-504.91"/>
</g>
<!-- template/substitute.ts&#45;&gt;utilities/index.ts -->
<g id="edge64" class="edge">
<title>template/substitute.ts&#45;&gt;utilities/index.ts</title>
<path fill="none" stroke="#757575" d="M1674.07,-599.88C1701.99,-599.88 1733.77,-599.88 1760.97,-599.88"/>
<polygon fill="#757575" stroke="#757575" points="1760.8,-603.38 1770.8,-599.88 1760.8,-596.38 1760.8,-603.38"/>
</g>
</g>
</svg>
