<svg id="e1d32062-e6d7-4855-a641-656e055496c0" data-name="Layer 1" xmlns="http://www.w3.org/2000/svg" viewBox="0 0 800 160"><defs><style>.f3f03b8e-ebac-409d-afc9-f27b2b5bccf4{fill:none;stroke:#414042;stroke-miterlimit:10;stroke-width:2px;}.f2967c9c-b15b-453c-847f-e0cd0e319d0d,.f3f03b8e-ebac-409d-afc9-f27b2b5bccf4{opacity:0.95;}.b28ffdcc-63a7-46db-81f2-4bf2a37e686d{fill:#414042;}</style></defs><line class="f3f03b8e-ebac-409d-afc9-f27b2b5bccf4" x1="355.91" y1="40" x2="355.91" y2="120"/><g class="f2967c9c-b15b-453c-847f-e0cd0e319d0d"><path class="b28ffdcc-63a7-46db-81f2-4bf2a37e686d" d="M382.5,59.32a6.8,6.8,0,0,1,0,13.6h-5.32v7.54h-2.63V59.32Zm-5.35,11.25h4.66c3,0,4.75-1.61,4.75-4.41s-1.69-4.49-4.75-4.49h-4.66Z"/><path class="b28ffdcc-63a7-46db-81f2-4bf2a37e686d" d="M395.73,80.46h-2.64V59.32h8.07c4.07,0,6.74,2.49,6.74,6.3a6,6,0,0,1-4.25,6.07l4.9,8.77h-3.1l-4.52-8.36h-5.2Zm0-10.71h5.2c2.71,0,4.25-1.45,4.25-4s-1.64-4-4.37-4h-5.08Z"/><path class="b28ffdcc-63a7-46db-81f2-4bf2a37e686d" d="M425.53,80.46h-13.1V59.32h13.1V61.7H415.07v6.78H425v2.34h-9.91v7.27h10.46Z"/><path class="b28ffdcc-63a7-46db-81f2-4bf2a37e686d" d="M431.28,74.94c.32,2.21,2.43,3.62,5.44,3.62,2.84,0,4.93-1.54,4.93-3.64,0-1.8-1.32-2.94-4.23-3.67l-2.71-.71c-3.82-1-5.48-2.69-5.48-5.69,0-3.59,3-6,7.47-6,4.09,0,7.13,2.43,7.35,5.84H441.4c-.36-2.17-2.15-3.46-4.79-3.46-2.81,0-4.67,1.41-4.67,3.55,0,1.65,1.16,2.61,4.07,3.35l2.21.59c4.38,1.1,6.14,2.8,6.14,5.9,0,3.88-3.06,6.36-7.89,6.36-4.49,0-7.58-2.37-7.85-6Z"/><path class="b28ffdcc-63a7-46db-81f2-4bf2a37e686d" d="M461.79,80.46h-13.1V59.32h13.1V61.7H451.33v6.78h9.92v2.34h-9.92v7.27h10.46Z"/><path class="b28ffdcc-63a7-46db-81f2-4bf2a37e686d" d="M472,80.46V61.7h-6.81V59.32h16.25V61.7h-6.81V80.46Z"/><path class="b28ffdcc-63a7-46db-81f2-4bf2a37e686d" d="M491.34,80.46V61.7h-6.81V59.32h16.26V61.7H494V80.46Z"/><path class="b28ffdcc-63a7-46db-81f2-4bf2a37e686d" d="M517.59,80.46h-13.1V59.32h13.1V61.7H507.13v6.78h9.92v2.34h-9.92v7.27h10.46Z"/><path class="b28ffdcc-63a7-46db-81f2-4bf2a37e686d" d="M524.5,80.46h-2.64V59.32h8.07c4.07,0,6.74,2.49,6.74,6.3a6,6,0,0,1-4.25,6.07l4.89,8.77h-3.09L529.7,72.1h-5.2Zm0-10.71h5.2c2.71,0,4.25-1.45,4.25-4s-1.64-4-4.37-4H524.5Z"/></g><g class="f2967c9c-b15b-453c-847f-e0cd0e319d0d"><path class="b28ffdcc-63a7-46db-81f2-4bf2a37e686d" d="M378.29,97.89H375l-.86,2.37h-.78l2.9-7.75H377l2.89,7.75h-.77Zm-3-.63h2.81l-1.37-3.78h-.07Z"/><path class="b28ffdcc-63a7-46db-81f2-4bf2a37e686d" d="M386.89,92.51c2.36,0,3.67,1.47,3.67,3.88s-1.31,3.87-3.67,3.87h-2.56V92.51Zm-1.82,7.09h1.77c1.9,0,3-1.2,3-3.21s-1.08-3.21-3-3.21h-1.77Z"/><path class="b28ffdcc-63a7-46db-81f2-4bf2a37e686d" d="M397,100.26h-4.69V92.51H397v.67h-3.95V96h3.75v.65h-3.75v3H397Z"/><path class="b28ffdcc-63a7-46db-81f2-4bf2a37e686d" d="M401.25,100.26l-2.9-7.75h.77l2.46,6.79h.07l2.45-6.79h.78l-2.9,7.75Z"/><path class="b28ffdcc-63a7-46db-81f2-4bf2a37e686d" d="M411,100.26h-4.68V92.51H411v.67h-3.94V96h3.74v.65h-3.74v3H411Z"/><path class="b28ffdcc-63a7-46db-81f2-4bf2a37e686d" d="M417.32,100.26H412.7V92.51h.74V99.6h3.88Z"/><path class="b28ffdcc-63a7-46db-81f2-4bf2a37e686d" d="M425.21,96.39c0,2.47-1.33,4-3.51,4s-3.51-1.57-3.51-4,1.34-4,3.51-4S425.21,93.91,425.21,96.39Zm-6.27,0c0,2,1.05,3.35,2.76,3.35s2.75-1.31,2.75-3.35S423.39,93,421.7,93,418.94,94.33,418.94,96.39Z"/><path class="b28ffdcc-63a7-46db-81f2-4bf2a37e686d" d="M429.75,92.51a2.42,2.42,0,1,1,0,4.83h-2v2.92H427V92.51Zm-2,4.18h1.85a1.77,1.77,0,1,0,0-3.52h-1.85Z"/><path class="b28ffdcc-63a7-46db-81f2-4bf2a37e686d" d="M440.58,100.26V93.94h-.06l-2.67,6.32h-.64l-2.68-6.32h0v6.32h-.7V92.51h.85l2.86,6.79h.06l2.86-6.79h.84v7.75Z"/><path class="b28ffdcc-63a7-46db-81f2-4bf2a37e686d" d="M448.07,100.26h-4.68V92.51h4.68v.67h-3.95V96h3.75v.65h-3.75v3h3.95Z"/><path class="b28ffdcc-63a7-46db-81f2-4bf2a37e686d" d="M449.76,100.26V92.51h.73L455,99h.07V92.51h.73v7.75h-.71l-4.53-6.44h-.07v6.44Z"/><path class="b28ffdcc-63a7-46db-81f2-4bf2a37e686d" d="M459.9,100.26V93.18h-2.6v-.67h5.93v.67h-2.6v7.08Z"/><path class="b28ffdcc-63a7-46db-81f2-4bf2a37e686d" d="M467.4,96.39c0-2.49,1.31-4,3.41-4a3,3,0,0,1,3.09,2.53h-.74A2.34,2.34,0,0,0,470.81,93c-1.62,0-2.66,1.31-2.66,3.36s1,3.35,2.67,3.35a2.24,2.24,0,0,0,2.34-1.68h.74a2.9,2.9,0,0,1-3.08,2.37C468.71,100.43,467.4,98.88,467.4,96.39Z"/><path class="b28ffdcc-63a7-46db-81f2-4bf2a37e686d" d="M482.27,96.39c0,2.47-1.32,4-3.5,4s-3.52-1.57-3.52-4,1.35-4,3.52-4S482.27,93.91,482.27,96.39Zm-6.27,0c0,2,1.05,3.35,2.77,3.35s2.75-1.31,2.75-3.35S480.46,93,478.77,93,476,94.33,476,96.39Z"/><path class="b28ffdcc-63a7-46db-81f2-4bf2a37e686d" d="M484.06,100.26V92.51h.73L489.31,99h.07V92.51h.72v7.75h-.71l-4.53-6.44h-.07v6.44Z"/><path class="b28ffdcc-63a7-46db-81f2-4bf2a37e686d" d="M492.23,100.26V92.51h4.59v.67H493v2.91h3.55v.66H493v3.51Z"/><path class="b28ffdcc-63a7-46db-81f2-4bf2a37e686d" d="M498.39,100.26V92.51h.73v7.75Z"/><path class="b28ffdcc-63a7-46db-81f2-4bf2a37e686d" d="M504.4,100.43c-2.1,0-3.47-1.6-3.47-4s1.37-4,3.45-4a3,3,0,0,1,3.18,2.43h-.75A2.35,2.35,0,0,0,504.38,93c-1.64,0-2.7,1.33-2.7,3.36s1.06,3.35,2.72,3.35a2.31,2.31,0,0,0,2.5-2.42v-.27h-2.36V96.4h3.09v.86A3,3,0,0,1,504.4,100.43Z"/><path class="b28ffdcc-63a7-46db-81f2-4bf2a37e686d" d="M515.1,92.51a2.42,2.42,0,1,1,0,4.83h-2v2.92h-.73V92.51Zm-2,4.18h1.85a1.77,1.77,0,1,0,0-3.52h-1.85Z"/><path class="b28ffdcc-63a7-46db-81f2-4bf2a37e686d" d="M519.88,100.26h-.74V92.51h2.78a2.23,2.23,0,0,1,2.48,2.27A2.15,2.15,0,0,1,522.74,97l1.88,3.29h-.86L522,97.09h-2.09Zm0-3.83h2a1.56,1.56,0,0,0,1.78-1.63,1.59,1.59,0,0,0-1.81-1.63h-2Z"/><path class="b28ffdcc-63a7-46db-81f2-4bf2a37e686d" d="M532.86,96.39c0,2.47-1.33,4-3.51,4s-3.51-1.57-3.51-4,1.34-4,3.51-4S532.86,93.91,532.86,96.39Zm-6.27,0c0,2,1,3.35,2.76,3.35s2.75-1.31,2.75-3.35S531,93,529.35,93,526.59,94.33,526.59,96.39Z"/><path class="b28ffdcc-63a7-46db-81f2-4bf2a37e686d" d="M534.65,100.26V92.51h4.59v.67h-3.86v2.91h3.55v.66h-3.55v3.51Z"/><path class="b28ffdcc-63a7-46db-81f2-4bf2a37e686d" d="M540.81,100.26V92.51h.74v7.75Z"/><path class="b28ffdcc-63a7-46db-81f2-4bf2a37e686d" d="M548.28,100.26h-4.61V92.51h.74V99.6h3.87Z"/><path class="b28ffdcc-63a7-46db-81f2-4bf2a37e686d" d="M554.48,100.26h-4.69V92.51h4.69v.67h-4V96h3.75v.65h-3.75v3h4Z"/><path class="b28ffdcc-63a7-46db-81f2-4bf2a37e686d" d="M559.24,100.26V92.51H560v7.75Z"/><path class="b28ffdcc-63a7-46db-81f2-4bf2a37e686d" d="M562.1,100.26V92.51h.73L567.34,99h.07V92.51h.73v7.75h-.71l-4.53-6.44h-.07v6.44Z"/><path class="b28ffdcc-63a7-46db-81f2-4bf2a37e686d" d="M570.58,98.25c.1.89,1,1.5,2.17,1.5s2-.65,2-1.51-.53-1.2-1.73-1.49l-.89-.23c-1.45-.36-2.07-1-2.07-2,0-1.25,1.08-2.15,2.66-2.15a2.43,2.43,0,0,1,2.66,2.06h-.75A1.75,1.75,0,0,0,572.69,93c-1.12,0-1.88.62-1.88,1.46,0,.68.47,1.07,1.66,1.36l.76.2c1.6.39,2.26,1,2.26,2.12,0,1.36-1.11,2.27-2.81,2.27s-2.75-.89-2.85-2.18Z"/><path class="b28ffdcc-63a7-46db-81f2-4bf2a37e686d" d="M579.13,100.26V93.18h-2.6v-.67h5.93v.67h-2.6v7.08Z"/><path class="b28ffdcc-63a7-46db-81f2-4bf2a37e686d" d="M587.28,97.89H584l-.86,2.37h-.78l2.9-7.75H586l2.9,7.75h-.77Zm-3-.63h2.82l-1.38-3.78h-.07Z"/><path class="b28ffdcc-63a7-46db-81f2-4bf2a37e686d" d="M595,100.26h-4.62V92.51h.74V99.6H595Z"/><path class="b28ffdcc-63a7-46db-81f2-4bf2a37e686d" d="M601.1,100.26h-4.61V92.51h.73V99.6h3.88Z"/><path class="b28ffdcc-63a7-46db-81f2-4bf2a37e686d" d="M607.3,100.26h-4.69V92.51h4.69v.67h-3.95V96h3.75v.65h-3.75v3h3.95Z"/><path class="b28ffdcc-63a7-46db-81f2-4bf2a37e686d" d="M609.72,100.26H609V92.51h2.77a2.23,2.23,0,0,1,2.48,2.27A2.14,2.14,0,0,1,612.58,97l1.88,3.29h-.86l-1.78-3.17h-2.1Zm0-3.83h2c1.13,0,1.79-.59,1.79-1.63a1.6,1.6,0,0,0-1.82-1.63h-1.95Z"/></g><g id="b6b3a163-ce83-47de-8842-a63e42f3e796" data-name="SvgjsG5353" class="f2967c9c-b15b-453c-847f-e0cd0e319d0d"><path class="b28ffdcc-63a7-46db-81f2-4bf2a37e686d" d="M312.09,36.29c2.42-.6,4,.79,5.26,3.27,2.21,4.21,4.71,8.27,7.16,12.36a3.83,3.83,0,0,1,.07,4.4q-7,12-13.88,24c-1,1.81-1.54,1.69-2.83,0-2.81-3.61-2.68-6.71-.05-10.49,3.09-4.43,5.44-9.35,8.22-14a3.08,3.08,0,0,0-.05-3.58q-3.81-6.37-7.44-12.85c-1.63-2.9-1.47-3.11,2-3.14Z"/><path class="b28ffdcc-63a7-46db-81f2-4bf2a37e686d" d="M338.87,77.09c1.74,1.78,1.31,3.83-.18,6.19-2.53,4-4.78,8.23-7.07,12.4A3.9,3.9,0,0,1,327.85,98q-13.85-.06-27.72.08c-2.08,0-2.24-.47-1.46-2.44,1.71-4.24,4.46-5.69,9-5.33,5.38.45,10.83,0,16.23.06A3.08,3.08,0,0,0,327,88.49q3.57-6.51,7.36-12.9c1.69-2.88,1.95-2.84,3.71.13C338.27,76.05,338.46,76.36,338.87,77.09Z"/><path class="b28ffdcc-63a7-46db-81f2-4bf2a37e686d" d="M317.11,120.75c-.67,2.4-2.66,3.06-5.44,3-4.75-.16-9.52,0-14.27.13a3.87,3.87,0,0,1-3.87-2.1q-6.94-12-14-23.91c-1.07-1.8-.72-2.18,1.37-2.48,4.53-.66,7.16,1,9.14,5.12,2.33,4.87,5.46,9.35,8.13,14.06a3.06,3.06,0,0,0,3.15,1.72q7.43-.18,14.84-.13c3.33,0,3.43.26,1.76,3.27Z"/><path class="b28ffdcc-63a7-46db-81f2-4bf2a37e686d" d="M268.43,123.94c-2.41.63-4-.75-5.29-3.2-2.26-4.18-4.81-8.22-7.3-12.27a3.87,3.87,0,0,1-.13-4.4q6.89-12,13.6-24.17c1-1.82,1.51-1.72,2.83-.06,2.85,3.58,2.76,6.68.18,10.48-3,4.47-5.33,9.42-8.05,14.1a3.06,3.06,0,0,0,.09,3.58c2.59,4.21,5.11,8.47,7.6,12.75,1.66,2.9,1.51,3.1-1.94,3.17Z"/><path class="b28ffdcc-63a7-46db-81f2-4bf2a37e686d" d="M241.16,83.47c-1.76-1.77-1.35-3.82.11-6.19,2.48-4,4.69-8.28,6.93-12.49a3.85,3.85,0,0,1,3.73-2.33c9.24-.07,18.49-.22,27.73-.4,2.08,0,2.24.44,1.48,2.41-1.65,4.27-4.38,5.74-9,5.43-5.38-.38-10.83.13-16.23.14a3.06,3.06,0,0,0-3,1.89q-3.5,6.54-7.2,13c-1.66,2.9-1.92,2.86-3.72-.07C241.77,84.51,241.58,84.19,241.16,83.47Z"/><path class="b28ffdcc-63a7-46db-81f2-4bf2a37e686d" d="M262.4,39.55c.63-2.41,2.61-3.09,5.39-3,4.75.11,9.52-.13,14.28-.3A3.86,3.86,0,0,1,286,38.28Q293,50.21,300.28,62c1.08,1.78.74,2.16-1.35,2.5-4.52.72-7.17-.9-9.21-5-2.38-4.84-5.56-9.28-8.29-14a3.08,3.08,0,0,0-3.17-1.69c-4.95.18-9.89.27-14.84.31-3.33,0-3.43-.22-1.79-3.24C261.81,40.6,262,40.28,262.4,39.55Z"/><path class="b28ffdcc-63a7-46db-81f2-4bf2a37e686d" d="M277.81,50.44c-5.37,0-10.74.23-16.11.24a6.93,6.93,0,1,0-.22,7.4,97.24,97.24,0,0,1,10.93,0c3.82.29,5.58-1.63,7.13-4.45C280.91,51,280.65,50.42,277.81,50.44Zm-22.08,7.4a4.55,4.55,0,0,1-1-.13,3.64,3.64,0,0,1,1-7.14,3.71,3.71,0,0,1,1.68.4,3.64,3.64,0,0,1-1.68,6.87Z"/><path class="b28ffdcc-63a7-46db-81f2-4bf2a37e686d" d="M261.9,75.73c-1.48-2.46-2.16-2.55-3.57-.09-2.89,5-5.59,10.14-8.52,15.13l-.15.26a6.94,6.94,0,1,0,6.4,3.8,111.58,111.58,0,0,1,6.13-10.69C264.34,81,263.55,78.5,261.9,75.73ZM253.3,99.1a3.61,3.61,0,1,1,.19-1.13A3.57,3.57,0,0,1,253.3,99.1Z"/><path class="b28ffdcc-63a7-46db-81f2-4bf2a37e686d" d="M310,55.05c-2.69-4.85-5.57-9.59-8.24-14.45a6.84,6.84,0,0,0,1.29-4,6.95,6.95,0,1,0-8.26,6.81A110.36,110.36,0,0,1,300.72,54c1.59,3.49,4.12,4.1,7.35,4.09C311,58.06,311.37,57.52,310,55.05ZM299.64,37.41a3.64,3.64,0,0,1-6.95.44,3.77,3.77,0,0,1-.23-1.27,3.64,3.64,0,1,1,7.27,0A3.3,3.3,0,0,1,299.64,37.41Z"/><path class="b28ffdcc-63a7-46db-81f2-4bf2a37e686d" d="M330.76,56.22a7,7,0,0,0-6.57,9.2h0a121.15,121.15,0,0,1-6.31,10.76c-2.22,3.12-1.48,5.62.15,8.4,1.46,2.49,2.14,2.58,3.57.14,2.88-4.86,5.58-9.82,8.48-14.65.22,0,.44,0,.67,0a6.94,6.94,0,1,0,0-13.87Zm.92,10.45a3.51,3.51,0,0,1-.92.11,3.63,3.63,0,0,1-3.64-3.63,3.66,3.66,0,0,1,3.64-3.63,3.63,3.63,0,0,1,.92,7.15Z"/><path class="b28ffdcc-63a7-46db-81f2-4bf2a37e686d" d="M325.09,99.51a7,7,0,0,0-5.5,2.71,109.15,109.15,0,0,1-12.27-.06c-3.81-.33-5.6,1.57-7.17,4.37-1.41,2.51-1.16,3.14,1.68,3.15,5.7,0,11.41-.13,17.11-.05a6.93,6.93,0,1,0,6.15-10.12Zm0,10.56a3.59,3.59,0,0,1-2.36-.87,3.64,3.64,0,0,1,2.36-6.4h0a3.64,3.64,0,1,1,0,7.27Z"/><path class="b28ffdcc-63a7-46db-81f2-4bf2a37e686d" d="M285.61,116.6a109.42,109.42,0,0,1-6.05-10.48c-1.62-3.46-4.16-4.05-7.38-4-2.88,0-3.3.58-1.89,3,2.75,4.81,5.68,9.51,8.4,14.32a6.88,6.88,0,0,0-1.24,3.94,6.95,6.95,0,1,0,8.16-6.82Zm-1.21,10.47a3.64,3.64,0,0,1-3.64-3.63,3.94,3.94,0,0,1,.08-.77,3.64,3.64,0,0,1,7-.54h0a4,4,0,0,1,.23,1.29A3.64,3.64,0,0,1,284.4,127.07Z"/></g></svg>