<?xml version="1.0" encoding="utf-8"?>
<svg xmlns="http://www.w3.org/2000/svg" width="800" height="800" viewBox="116 114 800 800" xmlns:bx="https://boxy-svg.com">
  <defs>
    <bx:export>
      <bx:file format="svg"/>
    </bx:export>
  </defs>
  <path style="stroke: rgb(0, 0, 0); fill: rgb(255, 255, 255);" d="M 368.634 334.784 C 461.732 334.784 513.038 341.846 606.282 341.846 C 625.654 341.846 645.37 341.842 665.013 341.842 C 671.071 341.842 684.807 339.891 690.099 342.537 C 694.086 344.531 710.482 343.482 712.643 345.662 C 728.48 361.636 721.017 400.027 726.195 420.92 C 739.2 473.392 726.439 530.313 735.261 583.488 C 740.591 615.616 743.244 657.249 719.142 681.145 C 699.165 700.951 657.986 689.272 635.128 681.651 C 622.754 677.526 611.9 681.174 602.762 672.036 C 600.454 669.728 586.997 675.983 585.716 676.62 C 570.689 684.1 561.324 699.858 562.823 717.108 C 564.331 734.442 602.939 736.688 617.198 740.069 C 626.331 742.234 638.099 747.311 633.844 759.931 C 630.156 770.87 613.024 780.34 602.8 785.429 C 591.733 790.937 584.292 799.691 572.314 803.616 C 552.249 810.191 531.888 808.226 511.33 811.622 C 496.748 814.03 477.395 809.523 465.133 803.393 C 455.904 798.779 442.875 798.695 433.57 795.593 C 430.202 794.471 425.97 787.234 423.186 784.45 C 409.389 770.653 396.876 757.795 387.064 740.408 C 382.166 731.73 380.672 712.128 374.585 706.042 C 370.822 702.279 375.609 691.415 371.039 686.845 C 355.169 670.973 320.655 698.705 302.324 689.541 C 294.358 685.558 283.861 681.316 279.582 672.757 C 274.522 662.637 279.477 645.002 281.689 634.776 C 288.067 605.301 287.552 574.883 292.507 544.889 C 294.233 534.438 290.266 522.635 292.507 512.279 C 300.294 476.288 295.14 438.324 303.985 402.333 C 310.138 377.297 300.935 359.315 319.288 340.644 C 320.213 339.703 325.768 339.335 326.772 339.335 C 326.176 339.635 359.074 337.833 368.634 334.784 Z"/>
  <path style="stroke: rgb(0, 0, 0); paint-order: stroke; fill: rgb(255, 255, 255);" d="M 317.741 303.773 L 373.013 309.435 C 373.013 309.435 305.107 355.123 304.984 355.245 C 304.861 355.367 269.567 360.467 269.567 360.467 L 250.695 355.06 L 317.741 303.773 Z"/>
  <path style="stroke: rgb(0, 0, 0); fill: rgb(255, 255, 255);" d="M 681.388 323.233 L 738.891 359.968 L 758.328 352.652 L 752.79 327.276 L 704.664 298.505 L 671.73 311.321 L 681.388 323.233 Z"/>
  <path d="M 344.552 200.25 C 355.584 192.138 370.569 194.112 383.824 194.094 L 423.758 194.066 L 548.166 194.035 L 628.355 194.015 C 640.039 194.002 654.677 193.638 666.141 194.394 C 673.295 194.866 684.043 202.147 688.226 208.715 C 702.482 231.101 712.561 256.937 723.636 281.023 C 725.968 286.094 729.062 294.476 731.403 298.811 C 746.008 309.204 760.116 320.378 774.807 330.751 C 784.074 337.295 794.99 344.624 803.425 351.951 C 809.618 357.33 808.477 376.474 808.495 384.243 L 808.597 419.89 L 808.984 462.478 C 809.002 469.17 809.198 476.805 808.747 483.707 C 807.377 504.701 779.201 489.482 767.267 487.202 C 761.909 486.178 744.232 481.324 740.18 479.256 L 739.941 479.743 C 740.938 485.326 741.393 492.654 741.919 498.405 C 742.75 507.824 743.669 517.236 744.677 526.638 C 747.92 558.048 753.316 598.324 751.618 629.458 C 750.408 640.918 748.533 651.487 744.885 662.484 C 742.605 667.887 740.296 672.883 737.26 677.919 C 724.898 694.121 713.501 702.173 692.752 705.182 C 684.891 706.322 679.305 705.732 672.011 706.152 C 649.655 704.682 624.947 698.72 606.494 685.553 C 601.843 689.438 598.035 692.86 593.782 696.85 C 590.355 700.067 580.069 712.464 577.439 713.787 L 577.422 715.235 C 585.448 717.644 591.342 719.213 599.531 721.223 C 614.967 725.132 631.65 726.56 645.22 735.53 C 658.241 744.137 653.041 760.599 645.247 770.897 C 622.511 800.939 586.788 818.503 550.054 824.103 C 502.28 831.385 452.104 820.298 412.958 791.62 C 381.702 768.647 360.8 734.245 354.812 695.919 C 341.888 701.885 325.99 705.917 311.718 705.771 C 287.166 705.537 263.659 690.023 262.097 663.927 C 260.868 643.402 265.723 622.036 268.717 601.631 C 272.437 574.805 275.979 547.955 279.343 521.082 C 280.75 509.637 283.54 491.29 284.085 480.195 L 284.113 479.531 C 273.75 482.823 263.09 485.638 252.591 488.561 C 245.332 490.583 235.739 494.365 228.334 494.779 C 213.281 495.621 215.014 480.301 215.008 469.971 L 215.015 443.536 C 215.03 418.867 214.678 394.164 214.998 369.5 C 215.069 364.095 215.619 358.527 218.791 353.929 C 222.974 347.866 231.493 343.093 237.41 338.872 C 246.108 332.668 294.296 299.095 298.471 292.55 C 301.771 287.377 303.94 280.794 306.353 275.143 C 312.44 260.89 330.865 213.226 340.274 204.063 C 341.886 202.315 342.654 201.737 344.552 200.25 Z M 315.953 357.252 C 313.556 363.108 313.974 378.712 313.795 385.51 C 313.483 399.299 312.958 413.082 312.219 426.855 C 310.833 454.304 309.569 482.734 306.904 510.045 C 304.403 535.671 300.561 562.373 297.079 587.91 C 295.189 601.677 293.221 615.432 291.173 629.176 C 289.942 637.6 288.171 647.046 288.081 655.472 C 287.744 687.19 325.135 680.42 344.48 673.309 C 360.882 669.342 379.377 649.192 393.421 641.057 C 395.51 639.826 400.965 636.318 403.13 636.459 C 406.963 643.455 407.198 665.952 408.742 674.96 C 417.817 727.9 447.853 767.988 492.249 796.718 C 493.097 796.945 493.929 797.174 494.774 797.313 C 537.969 804.397 587.247 794.887 618.137 762.012 C 619.93 760.104 622.526 756.971 624.703 755.645 L 624.572 754.836 C 607.136 749.088 588.225 748.116 570.195 741.679 C 550.116 734.512 534.795 719.157 542.905 696.489 C 548.519 680.798 569.767 663.133 584.246 655.481 C 598.141 648.139 610.416 656.897 621.468 664.593 C 641.054 677.351 678.956 686.043 700.618 676.107 C 709.315 672.023 716.013 664.626 719.216 655.568 C 720.448 653.045 721.736 649.063 722.11 646.306 C 722.587 645.202 722.866 644 723.196 642.831 C 729.353 610.011 721.171 556.672 717.796 522.102 C 714.766 489.946 712.43 457.728 710.79 425.472 C 710.157 411.362 709.632 397.248 709.215 383.13 C 708.92 373.53 710.296 364.304 705.868 355.637 C 701.499 353.635 698.839 351.833 694.843 349.147 C 683.421 348.523 666.628 349.073 654.718 349.078 L 575.128 349.091 L 364.022 349.082 L 328.356 349.08 C 324.183 352.363 318.991 354.468 315.953 357.252 Z M 317.42 315.122 C 313.773 317.192 304.959 324.228 301.05 327.201 C 290.35 335.343 280.242 342.888 269.247 350.598 L 269.924 350.96 C 275.816 349.659 286.757 349.92 293.266 349.874 C 301.339 338.051 307.267 332.57 322.141 331.122 C 327.23 324.737 329.835 324.583 336.643 320.706 C 338.392 319.71 339.494 317.662 337.803 315.846 C 333.422 314.159 322.636 314.99 317.42 315.122 Z M 707.109 315.047 C 703.394 315.041 685.098 314.374 682.987 315.759 C 682.241 317.642 682.267 316.729 682.774 318.585 C 688.527 324.6 692.363 318.696 700.305 330.936 C 716.134 331.095 721.792 339.114 730.98 349.934 C 735.126 349.943 750.579 349.532 753.128 350.636 L 753.533 350.051 C 747.876 346.486 741.079 341.179 735.634 337.073 C 726.046 329.835 716.537 322.492 707.109 315.047 Z" style="" fill="#2B3D4D"/>
  <path d="M409.986 402.539C425.797 399.77 440.846 410.386 443.542 426.21C446.238 442.034 435.553 457.033 419.717 459.656C403.983 462.262 389.103 451.662 386.425 435.941C383.746 420.22 394.278 405.29 409.986 402.539Z" style="" fill="#2B3D4D"/>
  <path fill="#2B3D4D" d="M605.618 402.574C621.355 399.596 636.52 409.963 639.46 425.708C642.399 441.453 631.996 456.593 616.244 459.495C600.545 462.386 585.468 452.026 582.539 436.335C579.609 420.643 589.933 405.541 605.618 402.574Z" style=""/>
  <path fill="#2B3D4D" d="M492.826 455.251C504.206 445.735 521.057 446.851 531.083 457.784C541.109 468.717 540.765 485.601 530.303 496.117C519.84 506.633 502.958 507.063 491.974 497.092C480.99 487.122 479.789 470.277 489.246 458.849C490.327 457.542 491.525 456.338 492.826 455.251Z" style=""/>
  <path fill="#B7C7A1" d="M368.489 219.94C385.203 218.529 404.916 219.336 422.022 219.243C455.224 218.856 488.429 218.733 521.633 218.875C548.669 218.738 575.707 218.866 602.741 219.26C612.272 219.351 632.724 218.91 641.512 219.954C646.771 220.11 660.452 219.179 664.149 220.692C664.655 221.344 665.145 221.995 665.677 222.627C669.061 223.743 685.103 258.316 687.902 263.964C689.591 267.372 697.467 282.342 696.97 285.306C686.407 284.752 674.901 285.06 664.251 284.946C652.392 284.819 640.051 284.376 628.239 284.586C631.062 284.983 634.315 284.971 637.353 285.346C620.938 286.192 602.317 285.875 585.769 285.909L502.011 285.938L449.247 285.819C439.108 285.813 428.407 286.078 418.278 285.351C417.47 285.293 416.845 285.211 416.004 285.207L416.851 284.649C402.482 284.332 386.815 285.051 372.209 284.984C365.116 284.952 344.811 284.579 339.354 285.41C341.07 285.464 343.943 285.375 345.406 286.006L345.002 286.516C342.068 286.859 332.869 287.577 330.598 285.963L331.158 285.568C341.199 264.026 348.254 242.226 359.401 219.987C362.431 220.018 365.46 220.003 368.489 219.94Z" style=""/>
  <path fill="#030204" d="M416.851 284.649L553.773 284.437C577.567 284.454 604.785 283.875 628.239 284.586C631.062 284.983 634.315 284.971 637.353 285.346C620.938 286.192 602.317 285.875 585.769 285.909L502.011 285.938L449.247 285.819C439.108 285.813 428.407 286.078 418.278 285.351C417.47 285.293 416.845 285.211 416.004 285.207L416.851 284.649Z" style=""/>
  <path fill="#030204" d="M339.354 285.41C341.07 285.464 343.943 285.375 345.406 286.006L345.002 286.516C342.068 286.859 332.869 287.577 330.598 285.963L331.158 285.568C333.656 285.499 336.917 285.313 339.354 285.41Z" style=""/>
  <path fill="#B7C7A1" d="M393.421 641.057C395.51 639.826 400.965 636.318 403.13 636.459C406.963 643.455 407.198 665.952 408.742 674.96C417.817 727.9 447.853 767.988 492.249 796.718L490.528 796.885C485.096 794.885 477.885 793.791 472.161 791.879C463.995 789.151 456.399 785.453 448.637 781.78L447.024 782.003C442.48 780.195 436.572 776.464 432.92 773.243L433.02 772.158C428.797 768.316 422.641 764.624 418.132 760.349C413.417 755.876 409.989 751.585 405.612 746.89C405.121 747.099 405.454 747.001 404.571 746.95C401.629 743.82 395.522 735.016 393.666 731.279C386.342 716.531 377.045 687.614 378.734 671.468L379.377 671.214C379.102 666.184 379.103 661.143 379.379 656.113L379.413 655.847C380.188 649.279 388.522 646.504 393.421 641.057Z" style=""/>
  <path fill="#030204" d="M405.612 746.89C405.121 747.099 405.454 747.001 404.571 746.95C401.629 743.82 395.522 735.016 393.666 731.279C386.342 716.531 377.045 687.614 378.734 671.468L379.377 671.214C381.348 693.437 385.744 714.329 396.78 734.173C399.059 738.27 402.962 742.843 405.612 746.89Z" style=""/>
  <path fill="#030204" d="M448.637 781.78L447.024 782.003C442.48 780.195 436.572 776.464 432.92 773.243L433.02 772.158C438.359 775.62 443.079 778.676 448.637 781.78Z" style=""/>
  <path fill="#B7C7A1" d="M239.779 463.894C238.945 456.625 238.874 375.469 240.097 370.801C240.518 372.911 240.791 382.363 240.914 385.008C241.041 380.01 241.057 375.009 240.963 370.009L289.072 369.974C289.071 386.043 287.638 401.544 287.599 416.818C290.261 420.454 286.078 448.197 284.884 454.438C276.679 457.318 248.598 463.074 239.779 463.894Z" style=""/>
  <path fill="#030204" d="M239.779 463.894C238.945 456.625 238.874 375.469 240.097 370.801C240.518 372.911 240.791 382.363 240.914 385.008L240.916 462.846C255.252 460.03 269.545 456.999 283.789 453.752C285.502 443.359 287.198 427.564 287.599 416.818C290.261 420.454 286.078 448.197 284.884 454.438C276.679 457.318 248.598 463.074 239.779 463.894Z" style=""/>
  <path fill="#B7C7A1" d="M774.587 461.004L774.534 461.448L773.787 461.765C769.388 461.063 764.962 459.605 760.763 458.98C755.225 458.155 743.42 457.081 738.705 454.525C735.642 449.932 733.974 408.099 734.217 400.318C734.376 395.213 732.586 384.03 733.382 378.937C734.145 374.047 733.635 374.093 733.745 369.573L734.135 369.437C749.121 370.524 767.793 370.014 783.001 370.004L782.983 462.371L774.587 461.004Z" style=""/>
  <path fill="#030204" d="M774.587 461.004L774.534 461.448L773.787 461.765C769.388 461.063 764.962 459.605 760.763 458.98C755.225 458.155 743.42 457.081 738.705 454.525C735.642 449.932 733.974 408.099 734.217 400.318C734.376 395.213 732.586 384.03 733.382 378.937C734.145 374.047 733.635 374.093 733.745 369.573L734.135 369.437C735.368 376.496 734.802 394.285 735.064 402.487C735.585 419.653 736.959 436.782 739.181 453.812C750.943 456.385 762.813 458.518 774.587 461.004Z" style=""/>
  <path fill="#B7C7A1" d="M774.343 656.757C782.373 651.059 789.018 646.078 795.007 638.074C796.676 635.844 800.488 627.576 801.966 626.759C803.296 628.144 805.776 634.021 807.409 636.475C810.344 640.885 812.913 643.907 816.394 647.897C817.387 648.728 820.389 651.456 821.353 651.733C823.186 653.599 826.732 655.77 829.04 657.305C815.587 665.32 808.208 674.666 801.241 688.076C799.34 685.014 797.813 681.514 795.688 678.155C789.715 668.711 782.692 663.727 774.343 656.757Z" style=""/>
  <path fill="#B7C7A1" d="M248.262 228.872C249.324 229.999 252.147 236.183 253.232 238.078C258.763 247.74 265.328 254.033 274.356 260.238C260.348 270.834 256.269 275.129 247.745 290.122C243.908 282.822 239.369 275.686 233.371 269.918C230.344 267.007 224.492 263.943 222.38 260.46C223.238 257.077 230.871 253.874 233.989 250.513C240.701 243.277 243.689 237.026 248.262 228.872Z" style=""/>
  <path fill="#B7C7A1" d="M215.029 553.071C224.132 550.61 233.503 556.009 235.94 565.118C238.378 574.228 232.956 583.585 223.841 586C214.757 588.407 205.44 583.008 203.011 573.931C200.581 564.853 205.957 555.522 215.029 553.071Z" style=""/>
  <path fill="#B7C7A1" d="M786.47 192.171C792.408 190.876 798.585 192.872 802.641 197.398C806.698 201.924 808.01 208.281 806.075 214.042C804.141 219.804 799.259 224.082 793.293 225.242C784.212 227.009 775.401 221.14 773.532 212.08C771.663 203.02 777.432 194.143 786.47 192.171Z" style=""/>
  <path fill="#B7C7A1" d="M820.235 272.406C826.68 272.41 831.904 277.633 831.908 284.078C831.912 290.523 826.695 295.754 820.25 295.766C813.794 295.779 808.552 290.551 808.547 284.094C808.543 277.637 813.778 272.402 820.235 272.406Z" style=""/>
</svg>